<svg xmlns="http://www.w3.org/2000/svg" xmlns:xlink="http://www.w3.org/1999/xlink" viewBox="0 0 1920 992.51"><defs><style>.cls-1{fill:#fff;}.cls-1,.cls-2,.cls-3,.cls-5,.cls-6{fill-rule:evenodd;}.cls-2{fill:#e9e9e9;}.cls-3{fill:url(#linear-gradient);}.cls-4{mask:url(#mask);}.cls-5{fill:url(#linear-gradient-2);}.cls-6{fill:url(#linear-gradient-3);}</style><linearGradient id="linear-gradient" x1="1025.88" y1="1008.07" x2="861.8" y2="-232.43" gradientTransform="matrix(1, 0, 0, -1, 0, 906)" gradientUnits="userSpaceOnUse"><stop offset="0" stop-color="#5f20e0"/><stop offset="1" stop-color="#244adc"/></linearGradient><mask id="mask" x="0" y="0" width="1920" height="899.12" maskUnits="userSpaceOnUse"><g id="mask0_0_1348" data-name="mask0 0 1348"><path class="cls-1" d="M0,649S378,964,714,887s381-170,659-37,547-58,547-58V0H0Z"/></g></mask><linearGradient id="linear-gradient-2" x1="962.24" y1="611.15" x2="959.01" y2="127.76" gradientTransform="matrix(1, 0, 0, -1, 0, 906)" gradientUnits="userSpaceOnUse"><stop offset="0" stop-color="#b620e0"/><stop offset="1" stop-color="#244adc" stop-opacity="0.01"/></linearGradient><linearGradient id="linear-gradient-3" x1="957.76" y1="862.15" x2="960.99" y2="378.76" xlink:href="#linear-gradient-2"/></defs><g id="Layer_2" data-name="Layer 2"><g id="Layer_1-2" data-name="Layer 1"><path class="cls-2" d="M0,792.78s209,122.14,440,78.09,458-16,647,54.06,502,128.14,638-54.06,195-310.36,195-310.36H0Z"/><path class="cls-3" d="M0,649S378,964,714,887s381-170,659-37,547-58,547-58V0H0Z"/><g class="cls-4"><path class="cls-5" d="M0,431.91s109-167,376,15,541,136,676,81,299-79,458,51,410,47,410,47v202s-309,74-547-64-572,64-764,64-376-194-609-168Z"/><path class="cls-6" d="M1920,180.91s-109-167-376,15-541,136-676,81-299-79-458,51-410,47-410,47v202s309,74,547-64,572,64,764,64,376-194,609-168Z"/></g></g></g></svg>