<svg width="24" height="22" viewBox="0 0 24 22" fill="none" xmlns="http://www.w3.org/2000/svg">
<path fill-rule="evenodd" clip-rule="evenodd" d="M22.9558 7.50052L16.3466 6.89756C15.9299 6.86101 15.5699 6.60521 15.3997 6.2215L13.0324 0.685188C12.6537 -0.228396 11.3089 -0.228396 10.9301 0.685188L8.58177 6.2215C8.43026 6.60521 8.0515 6.86101 7.63486 6.89756L1.02546 7.50052C0.0406786 7.59188 -0.357022 8.77954 0.381565 9.41905L5.36229 13.6398C5.68424 13.9139 5.8168 14.3159 5.72211 14.7178L4.226 20.6377C3.99874 21.5697 5.04034 22.3369 5.91149 21.8438L11.4225 18.7191C11.7823 18.5182 12.2179 18.5182 12.5777 18.7191L18.0889 21.8438C18.96 22.3369 20.0016 21.588 19.7742 20.6377L18.297 14.7178C18.2023 14.3159 18.3349 13.9139 18.6568 13.6398L23.6376 9.41905C24.3572 8.77954 23.9406 7.59188 22.9558 7.50052Z" fill="#DDDDDD"/>
</svg>
