<svg xmlns="http://www.w3.org/2000/svg" viewBox="0 0 48 48"><defs><style>.cls-1,.cls-2{fill:#f283b0;}.cls-1{opacity:0.1;isolation:isolate;}.cls-2{fill-rule:evenodd;}</style></defs><g id="Layer_2" data-name="Layer 2"><g id="Layer_1-2" data-name="Layer 1"><path class="cls-1" d="M24,0h0A24,24,0,0,1,48,24h0A24,24,0,0,1,24,48h0A24,24,0,0,1,0,24H0A24,24,0,0,1,24,0Z"/><path class="cls-2" d="M16,12H32a3,3,0,0,1,3,3V33a3,3,0,0,1-3,3H16a3,3,0,0,1-3-3V15A3,3,0,0,1,16,12Zm16,2H16a1,1,0,0,0-1,1V33a1,1,0,0,0,1,1H32a1,1,0,0,0,1-1V15A1,1,0,0,0,32,14ZM27,26.5a1,1,0,0,1,.12,2H19a1,1,0,0,1-.12-2H27Zm3-6a1,1,0,0,0-1-1H18.88a1,1,0,0,0,.12,2H29.12A1,1,0,0,0,30,20.5Z"/></g></g></svg>