<svg width="783" height="694" viewBox="0 0 783 694" fill="none" xmlns="http://www.w3.org/2000/svg">
<path fill-rule="evenodd" clip-rule="evenodd" d="M316.503 413.696C316.503 413.696 83.7322 483.184 16.5869 508.3C-50.5585 533.416 110.031 548.206 77.0177 589.229C44.0046 629.973 119.543 670.996 134.931 670.996C306.711 671.554 329.652 609.88 459.746 622.438C710.142 646.438 712.381 571.927 775.05 526.439C837.719 480.951 515.421 345.882 316.503 413.696Z" fill="url(#paint0_linear_0_177)"/>
<path fill-rule="evenodd" clip-rule="evenodd" d="M413.908 436.311L360.822 427.942C352.161 426.547 347.97 417.62 351.322 407.857C363.616 372.707 390.159 297.945 390.159 297.945C390.159 297.945 426.76 386.098 442.406 424.595C443.524 427.663 442.686 431.569 440.171 434.637C438.495 436.869 435.98 438.264 433.745 438.822L409.717 445.517L413.908 436.311Z" fill="#8D9DC7"/>
<path fill-rule="evenodd" clip-rule="evenodd" d="M199.609 510.236L146.523 501.867C137.861 500.473 133.67 491.546 137.023 481.782C149.317 446.633 175.86 371.87 175.86 371.87C175.86 371.87 212.461 460.023 228.107 498.52C229.225 501.588 228.387 505.494 225.872 508.562C224.196 510.794 221.681 512.189 219.446 512.747L195.418 519.442L199.609 510.236Z" fill="#8D9DC7"/>
<path fill-rule="evenodd" clip-rule="evenodd" d="M365.851 304.361C365.851 304.361 402.452 392.514 418.099 431.011C419.216 434.079 418.378 437.985 415.864 441.053C413.349 444.122 409.437 445.796 406.085 445.517C385.968 442.448 354.955 437.427 336.235 434.358C327.573 432.963 323.382 424.037 326.735 414.273C339.588 379.403 365.851 304.361 365.851 304.361Z" fill="#AAB7DB"/>
<path fill-rule="evenodd" clip-rule="evenodd" d="M151.552 378.566C151.552 378.566 188.153 466.718 203.8 505.215C204.917 508.284 204.079 512.189 201.564 515.258C199.05 518.326 195.138 520 191.785 519.721C171.669 516.652 140.655 511.631 121.936 508.562C113.274 507.168 109.083 498.241 112.436 488.477C125.009 453.328 151.552 378.566 151.552 378.566Z" fill="#AAB7DB"/>
<path fill-rule="evenodd" clip-rule="evenodd" d="M493.257 26.7929C493.257 18.424 489.346 10.3341 482.361 5.31275C475.655 0.291408 466.714 -1.10341 458.612 1.40726C369.204 29.3036 131.156 103.787 38.1159 133.078C15.4846 140.052 0.117599 160.974 0.117599 184.686V450.259C0.117599 458.628 4.02919 466.718 11.0142 471.739C17.7197 476.761 26.6605 478.156 34.7631 475.645C124.171 447.749 362.219 373.265 455.259 343.974C477.89 337 493.257 316.078 493.257 292.366V26.7929Z" fill="#C9D0E3"/>
<path fill-rule="evenodd" clip-rule="evenodd" d="M525.947 78.4011L479.567 67.5216C477.331 66.9636 475.376 67.5216 473.42 68.9164C471.743 70.3112 470.626 72.2639 470.626 74.4956C470.626 75.3325 470.626 75.8905 470.626 76.7273C470.626 80.0749 472.861 82.8645 475.934 83.7014C489.904 87.049 525.667 95.4179 525.667 95.4179V78.4011H525.947Z" fill="#8D9DC7"/>
<path fill-rule="evenodd" clip-rule="evenodd" d="M525.947 178.549L479.567 167.669C477.331 167.111 475.376 167.669 473.42 169.064C471.743 170.459 470.626 172.412 470.626 174.643C470.626 175.48 470.626 176.038 470.626 176.875C470.626 180.223 472.861 183.012 475.934 183.849C489.904 187.197 525.667 195.566 525.667 195.566V178.549H525.947Z" fill="#8D9DC7"/>
<path fill-rule="evenodd" clip-rule="evenodd" d="M463.082 52.7365C463.082 45.2045 459.45 38.2304 453.582 33.767C447.715 29.3036 439.892 28.1877 432.627 30.4194C354.116 54.9682 145.405 120.246 63.8206 145.91C43.9833 152.047 30.5721 170.459 30.5721 191.381V424.595C30.5721 432.127 34.2043 439.101 40.0717 443.564C45.9391 448.027 53.7622 449.143 61.0266 446.912C139.538 422.363 348.249 357.085 429.833 331.421C449.671 325.284 463.082 306.872 463.082 285.95V52.7365Z" fill="#EAEEF9"/>
<path fill-rule="evenodd" clip-rule="evenodd" d="M463.082 244.384V285.95C463.082 306.593 449.671 325.005 429.833 331.421C348.249 357.085 139.258 422.363 61.0266 446.912C54.0416 449.143 46.2184 447.749 40.0717 443.564C34.2043 439.101 30.5721 432.127 30.5721 424.595V379.96L463.082 244.384Z" fill="#AAB7DB"/>
<path fill-rule="evenodd" clip-rule="evenodd" d="M332.603 361.828L320.03 365.733V65.8478L332.603 61.9423V361.828Z" fill="#8D9DC7"/>
<path fill-rule="evenodd" clip-rule="evenodd" d="M247.257 293.774C262.719 290.096 274.325 283.226 273.18 278.43C272.036 273.634 258.574 272.727 243.112 276.406C227.651 280.084 216.045 286.954 217.189 291.75C218.334 296.546 231.796 297.452 247.257 293.774Z" fill="#C9D0E3"/>
<path fill-rule="evenodd" clip-rule="evenodd" d="M273.091 280.928C273.091 285.95 260.518 292.924 245.151 295.992C229.784 299.34 217.211 297.945 217.211 292.645V290.971H217.77C220.284 286.229 231.739 280.371 245.43 277.581C258.841 274.791 270.297 275.349 272.811 278.976H273.37V280.928H273.091Z" fill="#8D9DC7"/>
<path fill-rule="evenodd" clip-rule="evenodd" d="M247.257 293.774C262.719 290.096 274.325 283.226 273.18 278.43C272.036 273.634 258.574 272.727 243.112 276.406C227.651 280.084 216.045 286.954 217.189 291.75C218.334 296.546 231.796 297.452 247.257 293.774Z" fill="#C9D0E3"/>
<path fill-rule="evenodd" clip-rule="evenodd" d="M408.197 248.898C423.659 245.22 435.265 238.35 434.12 233.554C432.976 228.758 419.514 227.852 404.052 231.53C388.591 235.209 376.985 242.079 378.13 246.875C379.274 251.671 392.736 252.577 408.197 248.898Z" fill="#C9D0E3"/>
<path fill-rule="evenodd" clip-rule="evenodd" d="M248.503 243.268C248.503 242.432 248.224 241.595 247.386 241.037C246.827 240.479 245.989 240.2 245.151 240.479C243.195 240.758 241.798 242.71 241.798 244.663C241.798 253.032 241.798 273.954 241.798 282.323C241.798 283.16 242.077 283.997 242.915 284.555C243.474 285.113 244.312 285.392 245.151 285.113C247.106 284.834 248.503 282.881 248.503 280.928C248.503 272.56 248.503 251.637 248.503 243.268Z" fill="white"/>
<path fill-rule="evenodd" clip-rule="evenodd" d="M294.046 225.973C294.604 226.81 294.884 227.646 294.884 228.762C294.884 237.689 272.532 249.685 245.151 255.543C217.77 261.401 195.418 258.89 195.418 249.964C195.418 249.127 195.697 248.011 196.256 246.895L216.931 163.764L273.091 151.768L294.046 225.973Z" fill="#FFD23B"/>
<path fill-rule="evenodd" clip-rule="evenodd" d="M247.258 166.563C262.719 162.884 274.325 156.014 273.18 151.218C272.036 146.422 258.574 145.516 243.113 149.195C227.651 152.873 216.045 159.743 217.19 164.539C218.334 169.335 231.796 170.241 247.258 166.563Z" fill="#FDB445"/>
<path fill-rule="evenodd" clip-rule="evenodd" d="M378.145 120.525C378.145 120.525 404.408 123.593 411.393 111.598L415.025 121.361L411.393 136.147L390.997 139.494L377.865 130.009V120.525H378.145Z" fill="#F14835"/>
<path fill-rule="evenodd" clip-rule="evenodd" d="M378.145 120.525C378.145 120.525 384.291 136.147 399.379 133.078C414.467 130.009 411.393 111.598 411.393 111.598C411.393 111.598 413.349 107.413 420.893 119.688C428.436 131.962 448.833 163.764 448.553 171.296C448.553 178.828 442.127 183.291 436.26 182.454C436.26 182.454 426.481 172.97 424.804 171.296C424.804 171.296 435.98 211.188 436.26 218.162C436.26 218.162 409.437 239.921 380.1 232.668L377.865 186.36C377.865 186.36 373.395 205.887 370.321 207.561C367.248 209.235 353.278 208.119 354.675 199.75C356.072 191.381 366.689 130.567 370.321 125.825C374.512 121.083 378.145 120.525 378.145 120.525Z" fill="#F76E5E"/>
<path fill-rule="evenodd" clip-rule="evenodd" d="M509.183 74.4956L649.721 107.692V224.578L509.183 191.102V74.4956Z" fill="#C9D0E3"/>
<path fill-rule="evenodd" clip-rule="evenodd" d="M517.006 82.5856L641.897 112.156V216.209L517.006 186.639V82.5856Z" fill="#EAEEF9"/>
<path fill-rule="evenodd" clip-rule="evenodd" d="M515.33 163.485C515.33 163.485 518.124 152.047 524.27 143.4C528.182 138.099 533.211 133.915 539.917 135.31C543.828 136.147 546.343 138.657 547.74 141.726C549.416 145.073 550.255 149.258 551.093 153.442C552.49 159.579 554.446 165.438 559.475 168.227C561.71 169.622 564.504 170.18 567.857 170.18C581.827 169.901 584.341 158.743 586.856 149.537C587.694 146.747 588.253 144.236 589.37 142.284C590.209 140.61 591.606 139.773 593.282 139.773C597.473 139.773 598.591 142.842 599.988 146.189C601.385 150.095 602.782 154.279 606.973 157.348C609.487 159.3 613.399 160.695 618.987 160.695C622.06 160.695 624.016 159.858 625.413 158.743C626.81 157.627 627.648 155.953 627.927 154C628.486 151.49 628.207 148.421 627.648 144.794C627.089 140.889 626.251 136.425 626.251 132.799C626.251 129.172 627.089 126.104 629.604 124.151C631.839 122.477 635.751 121.64 641.618 121.919C642.177 121.919 643.015 121.361 643.015 120.804C643.015 120.246 642.456 119.409 641.897 119.409C634.633 118.851 630.163 120.525 627.369 123.035C625.413 124.988 624.295 127.499 624.016 130.567C623.737 133.357 624.016 136.425 624.295 139.494C624.854 143.4 625.692 147.305 625.692 150.653C625.692 152.884 625.413 154.837 624.295 156.232C623.178 157.627 621.501 158.185 618.707 158.185C613.678 158.185 610.325 157.069 608.09 155.395C604.458 152.884 603.34 148.979 601.943 145.352C600.267 140.889 598.311 137.262 593.003 137.262C590.209 137.262 588.253 138.657 586.856 140.889C585.738 142.842 584.9 145.631 584.062 148.7C581.827 156.79 579.871 167.39 567.577 167.669C557.24 167.669 555.004 160.416 553.328 152.605C552.21 148.421 551.372 143.957 549.696 140.61C547.74 136.704 544.946 133.915 540.196 132.799C532.652 131.125 526.506 135.589 522.035 141.726C515.609 150.653 512.815 162.648 512.815 162.648C512.536 163.206 513.094 164.043 513.653 164.043C514.491 164.322 515.05 164.043 515.33 163.485Z" fill="white"/>
<path fill-rule="evenodd" clip-rule="evenodd" d="M521.6 392.509L582.239 405.373L538.568 431.381L477.929 418.237L521.6 392.509Z" fill="#FAD0C4"/>
<path fill-rule="evenodd" clip-rule="evenodd" d="M502.407 403.695L563.046 416.839L557.761 419.915L497.122 407.051L502.407 403.695Z" fill="#EBB9AB"/>
<path fill-rule="evenodd" clip-rule="evenodd" d="M538.568 431.381L582.239 405.373V457.39L538.568 483.398V431.381Z" fill="#F3C4B8"/>
<path fill-rule="evenodd" clip-rule="evenodd" d="M477.929 418.237L538.568 431.381V483.398L477.929 470.534V418.237Z" fill="#EBB9AB"/>
<path fill-rule="evenodd" clip-rule="evenodd" d="M521.6 392.509L582.239 405.373L538.568 431.381L477.929 418.237L521.6 392.509Z" fill="#FAD0C4"/>
<path fill-rule="evenodd" clip-rule="evenodd" d="M502.407 403.695L563.046 416.839L557.761 419.915L497.122 407.051L502.407 403.695Z" fill="#EBB9AB"/>
<path fill-rule="evenodd" clip-rule="evenodd" d="M538.568 431.381L582.239 405.373V457.39L538.568 483.398V431.381Z" fill="#F3C4B8"/>
<path fill-rule="evenodd" clip-rule="evenodd" d="M477.929 418.237L538.568 431.381V483.398L477.929 470.534V418.237Z" fill="#EBB9AB"/>
<path fill-rule="evenodd" clip-rule="evenodd" d="M486.552 477.246L538.568 488.152L501.016 510.525L449.278 499.339L486.552 477.246Z" fill="#FAD0C4"/>
<path fill-rule="evenodd" clip-rule="evenodd" d="M470.14 486.754L522.156 497.941L517.428 500.737L465.69 489.551L470.14 486.754Z" fill="#EBB9AB"/>
<path fill-rule="evenodd" clip-rule="evenodd" d="M501.016 510.525L538.568 488.152V532.898L501.016 554.991V510.525Z" fill="#F3C4B8"/>
<path fill-rule="evenodd" clip-rule="evenodd" d="M449.278 499.339L501.016 510.525V554.991L449.278 544.085V499.339Z" fill="#EBB9AB"/>
<path fill-rule="evenodd" clip-rule="evenodd" d="M680.708 390.831L690.722 481.72H683.211L676.814 490.39L673.476 448.161L673.198 401.458L664.853 390.831L667.078 389.153L680.708 390.831Z" fill="#C9D0E3"/>
<path fill-rule="evenodd" clip-rule="evenodd" d="M591.697 383.839L621.182 393.627L673.198 401.178L664.575 390.551H680.708L601.988 373.771L607.274 379.085L591.697 383.839Z" fill="#9FA8BF"/>
<path fill-rule="evenodd" clip-rule="evenodd" d="M591.697 383.839L595.313 469.136L676.536 490.11L673.198 401.178L591.697 383.839Z" fill="#EAEEF9"/>
<path d="M613.393 388.593C613.393 388.593 612.002 343.288 630.361 343.288C648.441 343.009 650.389 396.703 650.389 396.703" stroke="#10024F" stroke-width="0.8345" stroke-linecap="round" stroke-linejoin="round"/>
<path fill-rule="evenodd" clip-rule="evenodd" d="M602.267 433.059L682.933 450.119L624.52 484.797L544.131 467.458L602.267 433.059Z" fill="#F5A791"/>
<path fill-rule="evenodd" clip-rule="evenodd" d="M636.48 440.331L648.441 442.847L590.306 477.525L578.345 474.729L636.48 440.331Z" fill="#FFC8B9"/>
<path fill-rule="evenodd" clip-rule="evenodd" d="M624.52 484.797L682.933 450.119V485.356L624.52 520.034V484.797Z" fill="#E9927B"/>
<path fill-rule="evenodd" clip-rule="evenodd" d="M544.131 467.458L624.52 484.797V520.034L544.131 502.695V467.458Z" fill="#DA7C63"/>
<path fill-rule="evenodd" clip-rule="evenodd" d="M578.345 474.729L590.306 477.525V512.483L578.345 509.966V474.729Z" fill="#FF9B7F"/>
<path fill-rule="evenodd" clip-rule="evenodd" d="M515.359 571.963C515.359 571.963 515.64 580.901 513.398 582.856C510.876 584.812 497.985 591.795 499.666 596.543C501.348 601.292 529.371 600.733 536.937 596.543C544.504 592.353 540.861 584.253 539.74 577.549C538.619 570.845 535.256 561.348 535.256 561.348L515.359 571.963Z" fill="#FDB445"/>
<path fill-rule="evenodd" clip-rule="evenodd" d="M409.151 318.058C409.151 318.058 387.573 301.857 396.26 293.198C404.667 284.539 420.08 309.12 420.08 309.12L409.151 318.058Z" fill="#E18262"/>
<path fill-rule="evenodd" clip-rule="evenodd" d="M472.764 588.722C472.764 588.722 473.885 601.012 472.764 602.13C471.643 602.968 441.938 620.565 447.543 625.314C453.148 630.062 485.094 618.61 495.183 610.23V583.136L472.764 588.722Z" fill="#FDB445"/>
<path fill-rule="evenodd" clip-rule="evenodd" d="M457.912 404.369C457.912 404.369 468.56 552.131 472.764 588.722C473.605 595.985 493.501 593.471 495.463 586.488C498.545 576.432 502.469 543.472 502.469 543.472C502.469 543.472 510.035 571.683 515.64 574.756C521.244 577.829 536.377 570.566 536.937 562.186C538.058 545.986 522.365 489.842 521.805 476.714C521.244 463.585 523.206 398.224 521.805 393.755C520.123 389.565 457.912 404.369 457.912 404.369Z" fill="#5B3FD1"/>
<path fill-rule="evenodd" clip-rule="evenodd" d="M437.455 210.798C437.455 210.798 427.646 252.417 437.455 262.193C447.263 271.97 455.67 262.193 455.67 262.193L463.516 274.763L487.616 260.238L485.094 250.182L477.808 211.077H437.455V210.798Z" fill="#E18262"/>
<path fill-rule="evenodd" clip-rule="evenodd" d="M442.779 189.569C442.779 189.569 432.13 196.273 433.251 205.491C434.372 214.708 438.015 224.764 454.549 223.926C454.549 223.926 455.109 235.099 464.917 239.568C464.917 239.568 463.236 225.323 474.165 225.323C485.374 225.323 483.133 239.847 474.165 243.758C474.165 243.758 475.847 252.696 487.336 255.769C487.336 255.769 494.902 239.568 497.705 236.216C500.787 232.864 507.793 209.96 489.578 209.122C489.578 209.122 487.616 198.228 472.484 193.48C457.351 188.731 452.867 198.787 452.867 198.787C452.867 198.787 449.785 201.301 442.779 189.569Z" fill="#2B2C6F"/>
<path fill-rule="evenodd" clip-rule="evenodd" d="M458.472 281.187C458.472 281.187 472.764 257.445 487.616 258.003C487.616 258.003 503.87 264.149 511.716 283.701C519.283 303.254 527.69 324.203 527.409 330.627C527.129 336.773 526.008 350.459 519.843 364.984C519.843 364.984 523.206 390.961 523.206 396.268C523.206 396.268 487.616 423.921 456.51 403.81C456.51 403.81 454.829 369.733 456.51 355.487C431.85 353.532 420.08 341.8 409.151 321.968C407.47 315.544 414.475 306.885 423.443 308.561C429.608 310.516 437.174 321.13 442.219 319.734C447.263 318.337 456.23 312.751 456.23 312.751C456.23 312.751 455.67 289.008 458.472 281.187Z" fill="#FFD23B"/>
<path fill-rule="evenodd" clip-rule="evenodd" d="M519.843 364.705C519.843 364.705 503.87 394.592 499.666 397.386C495.743 400.179 482.292 395.43 480.33 388.727C478.369 382.023 497.705 351.856 497.705 338.169C497.705 324.482 469.962 306.047 475.006 283.142C480.05 259.959 502.469 268.897 502.749 269.176L510.035 280.07C510.595 281.187 511.156 282.584 511.716 283.701C519.283 303.254 527.69 324.203 527.409 330.627C527.129 336.773 526.008 350.18 519.843 364.426V364.705ZM455.95 354.929C431.85 352.694 420.08 340.962 409.151 321.41C407.47 314.985 414.475 306.326 423.443 308.002C429.608 309.958 437.174 320.572 442.219 319.175C447.263 317.779 456.23 312.192 456.23 312.192V354.929H455.95Z" fill="#FFAD3B"/>
<path fill-rule="evenodd" clip-rule="evenodd" d="M480.33 389.006C482.012 394.313 491.54 398.503 496.864 398.224C495.183 404.369 486.495 411.911 484.254 411.073C481.731 410.235 486.495 402.693 485.094 401.855C483.693 400.738 478.088 405.765 474.445 408C471.083 410.235 459.313 416.1 457.631 413.586C455.67 411.073 463.236 403.251 468.28 399.9C473.044 396.548 480.33 389.006 480.33 389.006Z" fill="#E18262"/>
<path fill-rule="evenodd" clip-rule="evenodd" d="M181.359 284.494C181.637 284.773 184.417 287.007 188.308 287.844C192.477 288.682 197.48 287.844 202.205 280.864C202.761 282.26 209.432 304.876 209.432 324.979C209.432 345.64 181.359 378.866 181.359 378.866C188.308 404.274 175.522 405.391 175.245 416.559C174.967 427.728 186.084 452.019 186.084 452.019C154.677 491.108 103.813 470.447 103.813 470.447C103.813 470.447 107.982 427.449 107.982 410.417C107.982 393.385 77.9641 378.866 71.8493 363.231C65.7346 347.595 66.2904 298.454 66.2904 298.454C66.5684 299.013 77.9641 316.323 91.5833 296.779V332.238C91.5833 342.569 103.535 352.621 103.535 352.621C105.203 352.062 129.384 349.829 129.384 349.829C129.384 349.829 157.178 350.666 159.68 348.712C174.689 342.29 184.695 327.492 185.806 320.512C187.196 313.531 181.359 284.494 181.359 284.494Z" fill="#F76E5E"/>
<path fill-rule="evenodd" clip-rule="evenodd" d="M68.514 345.64C68.514 345.92 72.6832 368.536 97.9761 378.587C112.707 384.45 120.767 385.567 124.659 407.066C127.16 421.585 131.885 422.702 135.499 424.377C139.112 426.332 145.782 426.89 145.782 430.241C145.782 433.591 130.218 434.987 130.218 440.571C130.218 446.156 134.943 467.934 132.441 476.31C116.32 475.752 104.369 470.726 104.369 470.726C104.369 470.726 108.538 427.728 108.538 410.696C108.538 393.664 78.52 379.145 72.4052 363.51C70.4596 359.322 69.3478 352.9 68.514 345.64ZM209.154 319.953C209.154 321.628 209.432 323.583 209.432 325.258C209.432 345.361 183.027 377.191 181.359 379.145C181.359 379.145 172.465 361.835 175.245 357.646C184.139 343.965 201.927 344.803 209.154 319.953Z" fill="#F14835"/>
<path fill-rule="evenodd" clip-rule="evenodd" d="M176.912 158.012L73.517 180.907V283.656L78.242 288.403L176.912 260.761L181.637 162.759L176.912 158.012Z" fill="#04B4B1"/>
<path fill-rule="evenodd" clip-rule="evenodd" d="M78.242 185.654L181.637 162.759V265.507L78.242 288.403V185.654Z" fill="#14E3AD"/>
<path fill-rule="evenodd" clip-rule="evenodd" d="M156.344 639.927C156.344 639.927 151.897 646.348 157.734 656.4C163.571 666.451 185.528 680.412 194.701 679.295C208.32 677.62 207.208 668.685 205.262 662.263C203.317 655.562 182.749 639.927 182.749 639.927L178.302 637.134L156.344 639.927Z" fill="#F14835"/>
<path fill-rule="evenodd" clip-rule="evenodd" d="M120.212 649.699C120.212 649.699 112.707 659.75 117.432 668.964C122.435 678.178 148.84 694.652 158.012 693.535C167.184 692.697 170.797 683.204 170.797 679.295C170.519 675.386 148.84 654.445 146.616 649.42C144.393 644.952 120.212 649.699 120.212 649.699Z" fill="#F14835"/>
<path fill-rule="evenodd" clip-rule="evenodd" d="M112.985 556.722C112.985 556.722 115.764 596.649 117.71 616.752C119.656 637.134 120.212 649.42 120.212 649.42C120.212 649.42 133.831 668.127 146.338 649.42L151.619 610.61L156.344 639.927C156.344 639.927 169.964 655.004 182.749 639.927L186.918 545.554L123.547 551.138L112.985 556.722Z" fill="#FEBCA4"/>
<path fill-rule="evenodd" clip-rule="evenodd" d="M126.048 550.859L129.106 562.307C129.106 562.307 131.051 582.689 129.106 590.786C127.16 598.883 120.49 640.485 124.659 653.608C121.879 651.374 120.212 649.14 120.212 649.14C120.212 649.14 119.656 636.855 117.71 616.473C115.764 596.091 112.985 556.443 112.985 556.443L123.825 550.859H126.048ZM151.619 610.61C151.619 610.61 154.955 570.124 154.399 561.19C153.843 552.534 169.686 559.235 169.686 559.235C169.686 559.235 163.293 593.019 162.737 602.233C162.181 610.051 160.513 633.784 161.625 643.556C158.568 641.602 156.622 639.647 156.622 639.647L151.619 610.61Z" fill="#E49172"/>
<path fill-rule="evenodd" clip-rule="evenodd" d="M103.813 470.447C103.813 470.447 105.758 548.625 109.372 554.768C109.372 554.768 152.175 582.689 188.586 546.671C188.586 546.671 190.531 472.68 185.25 453.415L161.069 456.207C161.069 456.207 107.148 467.655 103.813 470.447Z" fill="#7E5B9F"/>
<path fill-rule="evenodd" clip-rule="evenodd" d="M127.16 463.746L132.163 475.752C132.163 475.752 127.438 486.641 126.326 490.829C125.215 495.017 119.934 512.049 122.991 527.964C126.048 544.158 129.94 555.606 129.384 562.865C117.71 559.794 109.928 554.768 109.928 554.768C106.314 548.625 104.369 470.447 104.369 470.447C105.203 469.33 115.487 466.538 127.16 463.746Z" fill="#604678"/>
<path fill-rule="evenodd" clip-rule="evenodd" d="M92.1392 335.31V335.03C92.1392 335.03 97.4202 332.797 98.254 319.953C98.8099 307.11 109.65 304.876 109.65 304.876C107.982 310.739 112.985 314.09 112.985 314.09C116.042 319.395 115.209 326.096 112.151 333.076C112.151 333.076 112.707 338.102 115.487 341.173C111.317 347.036 105.758 349.27 100.478 350.108C97.6981 346.478 93.251 341.173 92.1392 335.31Z" fill="#482767"/>
<path fill-rule="evenodd" clip-rule="evenodd" d="M166.628 313.531C166.628 313.531 168.018 287.844 144.949 290.357C121.601 292.87 107.426 314.09 112.429 333.076C112.429 333.076 113.819 325.537 117.432 325.537C123.825 325.537 121.879 331.122 125.77 331.122C130.773 331.122 144.949 305.155 144.949 305.155C144.949 305.155 144.115 319.116 146.338 321.07C148.562 323.025 156.9 307.668 156.9 307.668C156.9 307.668 164.683 308.785 166.628 313.531Z" fill="#502C72"/>
<path fill-rule="evenodd" clip-rule="evenodd" d="M113.263 314.09C113.263 314.09 107.148 310.181 110.484 303.48C113.541 296.779 120.49 302.363 120.49 302.363C117.154 305.714 114.653 309.622 113.263 314.09Z" fill="#F76E5E"/>
<path fill-rule="evenodd" clip-rule="evenodd" d="M91.8613 296.779C91.8613 296.779 78.52 287.286 66.5684 298.454C66.2904 298.454 77.9641 316.603 91.8613 296.779Z" fill="#F04734"/>
<path fill-rule="evenodd" clip-rule="evenodd" d="M166.628 313.531C167.184 317.72 166.906 336.427 164.405 342.569C161.347 350.108 154.955 351.225 154.955 351.225C154.955 351.225 157.178 365.185 143.559 365.464C134.109 365.464 129.662 351.225 129.662 351.225C124.659 348.712 123.547 344.524 123.547 344.524C113.263 344.524 112.151 332.797 112.151 332.797C112.429 331.959 113.541 325.258 117.154 325.258C123.547 325.258 121.601 330.842 125.493 330.842C130.496 330.842 144.671 304.876 144.671 304.876C144.671 304.876 143.837 318.836 146.06 320.791C148.284 322.745 156.622 307.389 156.622 307.389C156.622 307.389 164.683 308.785 166.628 313.531Z" fill="#FEBCA4"/>
<path fill-rule="evenodd" clip-rule="evenodd" d="M157.734 350.108C156.344 350.945 155.233 350.945 155.233 350.945C155.233 350.945 157.456 364.906 143.837 365.185C134.387 365.185 129.94 350.945 129.94 350.945C130.773 351.225 145.227 355.413 155.233 350.945C156.066 350.666 156.9 350.387 157.734 350.108Z" fill="#E49172"/>
<path fill-rule="evenodd" clip-rule="evenodd" d="M181.359 284.494C181.359 284.494 193.033 294.824 202.205 280.864C202.205 280.864 191.087 274.442 181.359 284.494Z" fill="#F04734"/>
<path fill-rule="evenodd" clip-rule="evenodd" d="M71.0155 303.201C71.0155 303.201 68.7919 270.254 88.8039 270.533C107.426 270.533 84.3568 297.616 86.3024 302.642C84.6348 305.155 76.5744 308.506 71.0155 303.201Z" fill="#FEBCA4"/>
<path fill-rule="evenodd" clip-rule="evenodd" d="M184.139 286.169C184.139 286.169 184.695 281.702 179.136 276.117C173.577 270.533 166.906 264.949 175.8 255.177C184.695 245.404 195.812 264.391 197.758 268.858C199.704 273.605 199.148 284.214 199.148 284.214C199.148 284.214 193.311 292.032 184.139 286.169Z" fill="#FEBCA4"/>
<path fill-rule="evenodd" clip-rule="evenodd" d="M106.87 194.588C114.375 192.913 120.212 197.381 120.212 204.919C120.212 212.458 114.097 219.717 106.87 221.672C99.6437 223.626 93.5289 218.88 93.5289 211.341C93.5289 203.802 99.6437 196.543 106.87 194.588ZM106.87 199.893C111.317 198.777 114.931 201.569 114.931 206.036C114.931 210.503 111.317 214.971 106.87 216.088C102.423 217.204 98.8099 214.412 98.8099 209.945C98.8099 205.478 102.423 201.01 106.87 199.893Z" fill="white"/>
<path fill-rule="evenodd" clip-rule="evenodd" d="M152.731 229.49C160.236 227.814 166.072 232.282 166.072 239.82C166.072 247.359 159.958 254.618 152.731 256.573C145.227 258.248 139.39 253.781 139.39 246.242C139.39 238.703 145.504 231.165 152.731 229.49ZM152.731 234.795C157.178 233.678 160.791 236.47 160.791 240.937C160.791 245.404 157.178 249.872 152.731 250.989C148.284 252.105 144.671 249.313 144.671 244.846C144.671 240.379 148.284 235.911 152.731 234.795Z" fill="white"/>
<path fill-rule="evenodd" clip-rule="evenodd" d="M108.816 266.345C110.484 266.904 112.429 266.066 112.985 264.67L152.453 186.212C153.287 184.816 152.453 183.141 151.063 182.582C149.396 182.024 147.45 182.862 146.894 184.258L107.426 262.715C106.592 264.111 107.148 265.787 108.816 266.345Z" fill="white"/>
<defs>
<linearGradient id="paint0_linear_0_177" x1="157.709" y1="612.094" x2="608.868" y2="620.126" gradientUnits="userSpaceOnUse">
<stop stop-color="#E3E9FC"/>
<stop offset="1" stop-color="#DDE4F6" stop-opacity="0.32"/>
</linearGradient>
</defs>
</svg>
