<svg width="34" height="34" viewBox="0 0 34 34" fill="none" xmlns="http://www.w3.org/2000/svg">
<path fill-rule="evenodd" clip-rule="evenodd" d="M16.7568 0.333496C7.68916 0.333496 0.312012 7.75816 0.312012 16.8842C0.312012 26.0095 7.68916 33.4348 16.7568 33.4348C25.8237 33.4348 33.2015 26.0095 33.2015 16.8842C33.2015 7.75816 25.825 0.333496 16.7568 0.333496ZM20.8464 17.4668H18.171C18.171 21.7688 18.171 27.0642 18.171 27.0642H14.2065C14.2065 27.0642 14.2065 21.8202 14.2065 17.4668H12.322V14.0748H14.2065V11.8808C14.2065 10.3095 14.9484 7.85416 18.2074 7.85416L21.1452 7.8655V11.1582C21.1452 11.1582 19.36 11.1582 19.0129 11.1582C18.6658 11.1582 18.1723 11.3328 18.1723 12.0822V14.0755H21.1928L20.8464 17.4668Z" fill="white"/>
<mask id="mask0_54_639" style="mask-type:alpha" maskUnits="userSpaceOnUse" x="0" y="0" width="34" height="34">
<path fill-rule="evenodd" clip-rule="evenodd" d="M16.7568 0.333496C7.68916 0.333496 0.312012 7.75816 0.312012 16.8842C0.312012 26.0095 7.68916 33.4348 16.7568 33.4348C25.8237 33.4348 33.2015 26.0095 33.2015 16.8842C33.2015 7.75816 25.825 0.333496 16.7568 0.333496ZM20.8464 17.4668H18.171C18.171 21.7688 18.171 27.0642 18.171 27.0642H14.2065C14.2065 27.0642 14.2065 21.8202 14.2065 17.4668H12.322V14.0748H14.2065V11.8808C14.2065 10.3095 14.9484 7.85416 18.2074 7.85416L21.1452 7.8655V11.1582C21.1452 11.1582 19.36 11.1582 19.0129 11.1582C18.6658 11.1582 18.1723 11.3328 18.1723 12.0822V14.0755H21.1928L20.8464 17.4668Z" fill="white"/>
</mask>
<g mask="url(#mask0_54_639)">
</g>
</svg>
