<svg width="1920" height="1008" viewBox="0 0 1920 1008" fill="none" xmlns="http://www.w3.org/2000/svg">
<path d="M1919 140.098V1007H1V111.995C1.15263 111.914 1.3382 111.816 1.55636 111.702C2.27683 111.324 3.35274 110.765 4.77146 110.041C7.6089 108.592 11.8175 106.486 17.2963 103.854C28.2539 98.5898 44.2915 91.2258 64.6007 82.831C105.22 66.041 162.92 45.1309 231.234 28.6528C367.88 -4.30758 546.89 -19.5105 716.615 51.3435C1056.88 193.392 1301.11 157.373 1505.22 112.37C1607.05 89.9178 1710.66 96.8987 1788.84 109.507C1827.93 115.811 1860.64 123.518 1883.59 129.649C1895.06 132.715 1904.08 135.386 1910.24 137.289C1913.32 138.241 1915.68 139.002 1917.27 139.523C1918.02 139.77 1918.6 139.963 1919 140.098Z" stroke="#244ADC" stroke-width="2"/>
</svg>
