<svg width="915" height="593" fill="none" xmlns="http://www.w3.org/2000/svg"><path d="M457.354 592.111c252.024 0 456.331-79.693 456.331-178s-204.307-178-456.331-178c-252.024 0-456.33 79.693-456.33 178s204.306 178 456.33 178Z" stroke="#FF83B2"/><path fill-rule="evenodd" clip-rule="evenodd" d="M457.354 287.591c179.136 0 324.354 56.645 324.354 126.52s-145.218 126.52-324.354 126.52S133 483.986 133 414.111s145.218-126.52 324.354-126.52Z" fill="url(#Illustration__a)"/><path d="M411.492 2.828c-.123 12.172-2.336 40.329-2.213 52.502.123 13.033-15.615 179.267-19.427 203.612-3.934 24.96-2.459 50.535-3.443 75.74 13.402-.492 207.425-5.656 246.77-7.992 4.918-.246 1.599-19.55 1.23-21.64-5.164-25.328 9.344-163.406 10.328-204.104.615-21.886 2.582-79.06 2.582-100.7-21.517 2.336-235.827 2.582-235.827 2.582Z" fill="#fff"/><path fill-rule="evenodd" clip-rule="evenodd" d="M588.793 120.127H447.149c-.492 0-.738-.369-.738-.738l6.64-89.02c0-.368.369-.737.86-.737h141.644c.492 0 .738.369.738.738l-6.64 89.019c0 .369-.369.738-.86.738Zm-107.586-1.599 2.091-27.542H450.1l-2.09 27.542h33.197Zm1.476 0 2.09-27.542h36.149l-2.091 27.542h-36.148Zm39.837-27.542-2.09 27.542h36.148l2.091-27.542H522.52Zm37.747 0h30.001l-2.09 27.542h-30.001l2.09-27.542ZM452.436 60.125l-2.213 29.263h33.075l2.213-29.263h-33.075Zm32.46 29.263 2.213-29.263h36.149l-2.213 29.263h-36.149Zm39.96-29.263-2.213 29.263h36.149l2.213-29.263h-36.149Zm35.411 29.263 2.213-29.263h30.001l-2.213 29.263h-30.001Zm-105.618-58.28-2.09 27.541h33.075l2.09-27.541h-33.075Zm32.583 27.541 2.09-27.541h36.149l-2.09 27.541h-36.149Zm39.714-27.541-2.09 27.541h36.149l2.09-27.541h-36.149Zm35.657 27.541 2.09-27.541h30.124l-2.09 27.541h-30.124Z" fill="#6A76F5" fill-opacity=".94"/><path d="M594.448 44.018c.492 0 .738.369.738.737 0 .37-.369.738-.86.738h-5.656c-1.476 0-2.582 1.107-3.443 2.951-1.476 3.074-2.213 7.87-3.074 12.664-.861 4.919-1.721 9.96-3.197 13.157-1.229 2.459-2.828 3.811-5.041 3.811-1.107 0-1.967-.246-2.705-.737-.984-.738-1.598-1.845-1.844-3.197-.492-2.09-.246-4.918-.246-7.746 0-2.09 0-4.304-.369-6.025-.246-1.23-.738-2.336-1.598-3.074-.861-.738-2.091-1.107-3.812-1.107-3.443 0-5.41 1.968-6.64 4.796-.86 1.967-1.475 4.426-2.09 6.762-.738 3.074-1.352 6.27-2.582 8.607-1.352 2.582-3.197 4.303-6.271 4.303-5.901 0-6.516-4.426-7.5-8.853-.492-2.336-1.106-4.672-3.074-6.147-1.229-.984-3.073-1.599-5.778-1.599-3.32 0-5.779 1.845-7.87 4.55-2.213 2.95-3.934 6.762-5.655 10.697-1.722 3.934-3.443 7.992-5.533 10.943-2.214 3.197-5.042 5.287-8.607 5.287-7.009 0-9.837-5.287-12.296-10.574-1.229-2.46-2.336-5.041-3.811-6.886-1.476-1.721-3.32-2.95-6.025-2.95-1.23 0-2.705.491-4.181 1.229-2.336 1.23-4.795 3.32-7.377 5.902-9.959 9.959-19.795 26.681-19.795 26.681-.246.369-.738.492-1.107.369-.369-.246-.492-.615-.246-.984 0 0 9.959-16.845 20.042-27.05 2.582-2.705 5.287-4.795 7.746-6.148 1.721-.983 3.442-1.475 4.918-1.475 3.197 0 5.41 1.352 7.131 3.443 1.599 1.967 2.828 4.549 4.058 7.131 2.336 4.795 4.672 9.713 11.066 9.713 3.074 0 5.287-1.844 7.254-4.549 2.09-2.95 3.689-6.763 5.41-10.697 1.721-3.934 3.566-7.992 5.779-10.943 2.459-3.197 5.287-5.287 9.221-5.287 3.074 0 5.165.738 6.64 1.844 2.213 1.722 2.951 4.304 3.566 7.009.369 1.598.614 3.197 1.229 4.672.738 1.844 2.09 3.197 4.918 3.197 2.337 0 3.812-1.353 4.796-3.32 1.106-2.213 1.721-5.287 2.459-8.238.737-3.197 1.475-6.27 2.951-8.73 1.598-2.582 3.811-4.18 7.377-4.18 6.885 0 7.377 5.779 7.254 11.68 0 2.706-.246 5.41.246 7.378.369 1.721 1.23 2.828 3.197 2.828 1.598 0 2.705-1.107 3.566-2.951 1.475-3.074 2.336-7.87 3.074-12.665.86-4.918 1.598-9.959 3.196-13.156 1.107-2.459 2.705-3.811 4.919-3.811h5.532Z" fill="#6A76F5" fill-opacity=".94"/><path d="M576.257 189.954c11.935-11.494 12.98-29.773 2.334-40.827-10.646-11.054-28.952-10.698-40.886.796-11.935 11.494-12.98 29.773-2.334 40.827 10.646 11.054 28.952 10.698 40.886-.796Z" fill="#FFBE02"/><path d="M578.956 149.513c4.795 5.287 7.5 12.418 6.886 20.41-.615 7.746-4.181 14.878-9.714 20.042l-19.304-20.042 22.132-20.41Z" fill="#FF6F5F"/><path d="M453.051 161.562h19.55l-7.132 94.552h-19.55l7.132-94.552Z" fill="#3847BC"/><path d="M485.634 189.104h19.549l-5.041 67.01h-19.549l5.041-67.01Z" fill="#B5BCED"/><path d="M518.831 208.654h19.673l-3.566 47.46h-19.672l3.565-47.46Z" fill="#3847BC"/><path d="M552.521 222.548h19.55l-2.459 33.566h-19.673l2.582-33.566Z" fill="#B5BCED"/><path d="M444.69 271.976h123.692l-.369 4.918H444.321l.369-4.918Zm-.738 11.188h123.569l-.368 4.918h-123.57l.369-4.918Z" fill="#3847BC"/><path d="m596.662 280.336 164.759 60.74-95.413 86.314-164.759-60.739 95.413-86.315Z" fill="#2F216B"/><path fill-rule="evenodd" clip-rule="evenodd" d="m501.249 366.651 164.759 60.739v24.099l-164.759-60.616v-24.222Z" fill="url(#Illustration__b)"/><path d="M784.659 295.829 619.9 235.089l-23.238 45.247 164.759 60.74 23.238-45.247Z" fill="#2F216B"/><path d="M632.318 278.861c5.84 0 10.574-4.734 10.574-10.574s-4.734-10.574-10.574-10.574-10.574 4.734-10.574 10.574 4.734 10.574 10.574 10.574Zm27.665 10.205c5.84 0 10.574-4.734 10.574-10.574s-4.734-10.574-10.574-10.574-10.574 4.734-10.574 10.574 4.734 10.574 10.574 10.574Z" fill="#120355"/><path d="m587.317 301.116 27.05 9.959-18.935 17.214-27.05-9.96 18.935-17.213Zm-19.919 18.074 27.05 9.96-18.935 17.09-27.05-9.959 18.935-17.091Zm-19.918 17.951 27.05 9.96-18.935 17.213-27.05-9.959 18.935-17.214Zm67.994-25.697 27.05 9.959-19.058 17.214-27.05-9.96 19.058-17.213Z" fill="#624CBE"/><path d="m595.432 329.518 27.05 9.96-18.935 17.09-27.05-9.959 18.935-17.091Z" fill="#120355"/><path d="m575.513 347.47 27.05 9.959-18.935 17.214-27.05-9.96 18.935-17.213Zm67.994-25.698 27.05 9.96-19.058 17.213-27.05-9.959 19.058-17.214Z" fill="#624CBE"/><path d="m675.967 338.248 27.05 9.959-12.049 10.82-27.05-9.959 12.049-10.82Zm-19.181 17.337 27.05 9.959-12.049 10.82-27.05-9.959 12.049-10.82Zm-19.304 17.336 27.05 9.959-11.926 10.82-27.05-9.959 11.926-10.82Z" fill="#120355"/><path d="m623.589 339.846 27.05 9.96-19.058 17.213-27.05-9.959 19.058-17.214Zm-19.919 17.952 26.927 9.959-18.935 17.214-27.05-9.96 19.058-17.213Z" fill="#624CBE"/><path fill-rule="evenodd" clip-rule="evenodd" d="m666.008 427.39 95.413-86.314v24.222l-95.413 86.191V427.39Z" fill="url(#Illustration__c)"/><path d="M484.035 415.832c-4.057-2.951-9.344-3.565-13.894-1.598a18102.22 18102.22 0 0 0-51.026 22.746c-2.951 1.353-5.041 4.181-5.41 7.378a9.034 9.034 0 0 0 3.689 8.361l70.084 52.501c4.057 2.951 9.345 3.566 13.894 1.599a17994.173 17994.173 0 0 0 51.026-22.747c2.951-1.352 5.041-4.18 5.41-7.377a9.033 9.033 0 0 0-3.689-8.361l-70.084-52.502Z" fill="#fff"/><path d="m419.484 436.857 6.517-2.951 89.142 66.765-6.517 2.828-89.142-66.642Z" fill="#3847BC"/><path d="M276.734 440.423h79.183v6.517c0 5.41-17.706 9.836-39.592 9.836s-39.591-4.426-39.591-9.836v-6.517Z" fill="#FFA000"/><path d="M316.325 450.26c21.866 0 39.592-4.404 39.592-9.837 0-5.432-17.726-9.836-39.592-9.836-21.865 0-39.591 4.404-39.591 9.836 0 5.433 17.726 9.837 39.591 9.837Z" fill="#FFBE02"/><path d="M276.734 431.816h79.183v6.517c0 5.41-17.706 9.836-39.592 9.836s-39.591-4.426-39.591-9.836v-6.517Z" fill="#FFA000"/><path d="M316.325 441.653c21.866 0 39.592-4.404 39.592-9.837 0-5.432-17.726-9.836-39.592-9.836-21.865 0-39.591 4.404-39.591 9.836 0 5.433 17.726 9.837 39.591 9.837Z" fill="#FFBE02"/><path d="M276.734 423.087h79.183v6.516c0 5.41-17.706 9.837-39.592 9.837s-39.591-4.427-39.591-9.837v-6.516Z" fill="#FFA000"/><path d="M316.325 432.923c21.866 0 39.592-4.404 39.592-9.836 0-5.433-17.726-9.837-39.592-9.837-21.865 0-39.591 4.404-39.591 9.837 0 5.432 17.726 9.836 39.591 9.836Z" fill="#FFBE02"/><path d="M276.734 414.603h79.183v6.516c0 5.41-17.706 9.837-39.592 9.837s-39.591-4.427-39.591-9.837v-6.516Z" fill="#FFA000"/><path d="M316.325 424.439c21.866 0 39.592-4.404 39.592-9.836 0-5.433-17.726-9.837-39.592-9.837-21.865 0-39.591 4.404-39.591 9.837 0 5.432 17.726 9.836 39.591 9.836Z" fill="#FFBE02"/><path d="M210.461 345.01h88.282v41.559c0 6.025-19.796 10.943-44.141 10.943s-44.141-4.918-44.141-10.943V345.01Z" fill="#120355"/><path d="M175.419 414.603h79.183v29.509c0 5.41-17.705 9.836-39.591 9.836-21.886 0-39.592-4.426-39.592-9.836v-29.509Z" fill="#FFA000"/><path d="M215.011 424.439c21.865 0 39.591-4.404 39.591-9.836 0-5.433-17.726-9.837-39.591-9.837-21.866 0-39.592 4.404-39.592 9.837 0 5.432 17.726 9.836 39.592 9.836Z" fill="#FFBE02"/><path fill-rule="evenodd" clip-rule="evenodd" d="m223.863 408.947 1.476-.861 2.213.123-1.475.861c1.106.123 2.09.369 2.705.615.86.368 1.229.86 1.106 1.352-.123.615-.738 1.107-1.844 1.844l-3.197-.123c1.107-.737 1.476-1.229 1.107-1.721-.246-.369-.984-.615-2.091-.738l-6.024 3.443c1.094.253 1.958.505 2.552.679.274.08.49.143.644.182.861.369 1.23.86 1.107 1.352-.123.492-.738.984-1.721 1.599-.984.614-2.336 1.106-3.935 1.598-1.598.492-3.32.738-5.164.984l-.178.012c-1.654.119-3.197.229-4.74.111l-1.476.86-2.213-.123 1.476-.86a13.584 13.584 0 0 1-2.951-.615c-.984-.369-1.353-.861-1.107-1.598.246-.615.861-1.353 2.213-2.091l3.197.123c-.86.615-1.229.984-1.352 1.476-.123.369.246.737.86.983.069.023.142.05.22.079.341.127.778.29 1.379.29l6.885-3.934c-1.475-.369-2.459-.615-2.951-.984-.614-.369-.86-.738-.737-1.23.106-.425.58-.758 1.264-1.239l.334-.236c.984-.492 2.213-.984 3.689-1.475 1.475-.369 3.196-.738 4.918-.861 1.229.123 2.582.123 3.811.123Zm-8.729 6.393-6.517 3.689h2.951c1.23-.123 2.213-.246 3.197-.492.983-.246 1.721-.492 2.336-.86.615-.369.861-.615.984-.984 0-.246-.369-.615-.984-.861-.228-.076-.55-.152-.995-.257-.275-.065-.597-.141-.972-.235Zm2.582-4.918c1.229-.246 2.459-.246 3.934-.246l-5.656 3.197c-1.475-.369-2.213-.615-2.336-.86-.246-.246 0-.615.738-.984.738-.492 1.844-.861 3.32-1.107Zm106.17-.5 1.237-.634 1.82.923-1.237.633c.923.588 1.779 1.133 2.331 1.722.695.798 1.074 1.513.895 2.229-.178.716-.673 1.348-1.617 1.813l-2.653-1.216c.932-.591 1.242-1.223.93-1.896-.235-.504-.786-1.092-1.828-1.638l-5.242 2.705c1.396 1.007 2.277 1.805 2.697 2.309.695.799 1.074 1.514.949 2.145-.124.632-.632 1.138-1.51 1.645-.825.422-2.033.719-3.385.806-1.352.087-2.848-.036-4.488-.37-1.454-.334-2.801-.836-4.16-1.465l-1.238.634-1.82-.923 1.237-.633c-1.054-.672-1.911-1.217-2.528-1.847-.761-.841-1.086-1.64-.92-2.482.166-.842.781-1.517 1.845-2.024l2.706 1.131c-.693.506-1.081.97-1.218 1.476-.136.505.164 1.052.781 1.682a7.88 7.88 0 0 0 1.342 1.092l5.894-3.001c-1.33-.965-2.145-1.721-2.499-2.183-.564-.715-.745-1.304-.674-1.851.137-.506.578-1.054 1.35-1.392.824-.422 1.913-.677 3.199-.806 1.286-.129 2.662.037 4.182.413 1.43.081 2.526.542 3.622 1.003Zm-13.014 8.654c.844.42 1.677.713 2.562.921 1.018.293 1.958.417 2.753.332.861-.044 1.472-.129 1.938-.425.532-.254.746-.591.776-.928.029-.336-.271-.883-.876-1.387-.276-.294-.816-.756-1.618-1.386l-5.535 2.873Zm7.755-8.686c1.059.082 2.143.417 3.37.962l-4.829 2.493c-1.198-.882-1.882-1.554-1.984-1.975-.169-.463.046-.8.632-1.138.651-.296 1.566-.424 2.811-.342Z" fill="#FFA000"/><path d="M254.602 355.953c24.378 0 44.141-4.899 44.141-10.943 0-6.043-19.763-10.943-44.141-10.943-24.378 0-44.141 4.9-44.141 10.943 0 6.044 19.763 10.943 44.141 10.943Z" fill="#090032"/><path d="M321.366 334.437s2.091 7.377 0 9.221c-2.09 1.967-9.098 8.853-6.27 10.451 2.828 1.476 15.738-3.074 17.09-6.393 1.23-3.32 1.476-11.312.984-12.296-.738-.861-11.804-.983-11.804-.983Zm30.985-4.181s-.861 7.131 1.352 7.5c2.214.369 11.804 7.746 14.386 8.607 2.459.738 7.131-1.352 7.254-3.812.123-2.459-10.205-14.385-11.926-15.369-1.599-1.229-11.066 3.074-11.066 3.074Z" fill="#ECECEC"/><path d="M312.022 238.655s7.869 93.322 9.59 96.888c1.722 3.566 9.837 2.09 11.189 0 1.353-2.09 3.689-76.478 4.795-77.461.984-.984 12.788 71.928 15.001 72.42 2.213.369 10.574 1.352 10.943-3.566.369-4.918-6.025-91.724-6.763-97.503-.737-5.779-31.845-8.115-31.845-8.115l-12.91 17.337Z" fill="#2F216B"/><path d="M363.909 153.693s28.279-10.697 30.738-12.91c2.459-2.213 1.107-7.992 4.181-8.361 3.074-.369 3.197 3.074 3.319 4.058.123.983 7.009-3.689 9.468-3.074 2.459.614 4.795 1.352 3.074 6.147-1.844 4.796-44.756 32.215-46.723 32.092-1.967-.246-4.057-17.952-4.057-17.952Z" fill="#FF6F5F"/><path d="M316.079 157.136s-13.771 5.779-18.443 12.296c-3.32 4.549-7.869 15-7.869 15s10.943 11.558 12.173 10.943c1.229-.615 5.532-9.836 5.532-9.836s-1.598 48.69 0 51.026c1.599 2.336 8.853 3.074 13.157 2.336 4.303-.738 34.304-7.869 36.148-9.345 1.845-1.598 1.845-2.951 0-4.426-1.844-1.475-7.746-44.633-7.131-45.739.615-1.23 18.566-6.517 18.689-7.623.123-1.107-3.566-18.443-4.426-17.829-.492.246-8.238 2.951-16.476 3.443-7.623.492-15.861-1.23-15.861-1.23l-15.493.984Z" fill="#F9CA78"/><path d="M289.767 184.309s-5.41 9.222-2.459 16.107c2.951 7.009 24.714 37.501 30.124 32.214 3.074-3.074 1.229-9.221-1.107-10.943-3.811-2.951.615-1.352 1.107-2.336.492-1.106-.615-2.951-3.197-3.443-2.705-.491-5.287-2.09-5.287-2.09s-8.976-10.697-9.468-13.525c-.491-2.828 2.337-5.164 2.337-5.164l-12.05-10.82Zm17.828-44.633s-.737 5.041.615 7.132c1.845 2.951 4.795 1.598 5.533 1.598 2.951.123 2.582 8.115 2.213 8.73 6.517 6.639 15.739 3.443 16.476 2.09.738-1.352.615-4.672.615-4.672s6.025-2.705 7.746-9.959c1.23-5.165.861-11.312.861-11.312l.861-8.607-8.484-.984c-9.099-.615-20.042 4.673-24.714 9.591-2.213 2.213-1.722 6.393-1.722 6.393Z" fill="#FF6F5F"/><path d="M324.071 161.071c-3.688-3.197-4.795-8.73-1.598-7.009 3.32 1.844 10.697.615 10.697.615 0 .369 0 3.32-.615 4.549-.492.861-4.18 2.336-8.484 1.845Z" fill="#F95B4A"/><path d="M316.202 140.783c1.353-.246 3.443-4.426 3.32-9.221 7.377-.492 8.115-4.058 8.484-5.779 9.467 5.533 13.525.123 13.525.123v7.377c8.484-7.746 7.623-28.034-8.853-28.526-4.918-.123-11.189 4.181-14.386 10.206-7.5-.246-15.123 7.746-15.123 13.648 0 5.533 4.426 11.066 4.426 11.066s1.23-2.46 4.304-2.337c2.336 0 1.967 3.812 4.303 3.443Z" fill="#261616"/><path d="M321.858 381.528s4.181 8.73 6.763 9.59c2.582.861 11.066-5.041 13.648-10.328 2.582-5.287 4.795-12.787 0-11.312-4.796 1.476-11.558 5.779-11.558 5.779l-8.853 6.271Z" fill="#2F216B"/><path d="M275.75 230.663s6.517 7.131 5.533 16.476c-.983 9.344-4.426 14.385-6.393 16.107-1.968 1.598-14.263-5.042-14.263-5.042l-1.967-11.065 3.688-9.345 13.402-7.131Z" fill="#FF6F5F"/><path d="M273.045 342.182s24.591 9.714 29.878 12.788c5.41 3.073 17.46 26.558 19.427 26.927 1.967.369 9.59-.246 9.836-3.935.369-3.689-12.541-39.099-16.353-44.018-3.811-4.918-26.435-17.213-29.755-17.951-3.196-.492-13.033 26.189-13.033 26.189Z" fill="#F6612B"/><path d="M302.8 252.795s13.771-5.287 17.091-10.206c3.197-4.918 6.271-15.861 6.271-15.861s-3.689-3.443-3.443-5.779c.123-2.336 2.828-4.18 4.918-3.196 2.213.983 2.213 0 2.213 0s2.582-6.394 6.148-6.394 4.549 6.025 4.057 12.295c-.368 6.271-6.393 24.222-10.205 29.141-3.811 4.918-9.098 15-17.09 15.984-8.115.983-9.96-15.984-9.96-15.984Z" fill="#FF6F5F"/><path d="M252.389 260.049s31.968-1.845 37.132-3.566c5.164-1.721 13.648-5.533 16.476-2.705 2.828 2.828 8.484 15.615 6.64 18.443-.861 1.23-4.55 4.55-10.083 7.378-7.008 3.442-15.984 3.073-15.984 12.91 0 6.516 1.353 19.304 1.107 26.066-.246 6.763-.984 21.517-17.583 24.345-16.599 2.828-32.337-3.197-35.042-10.205-2.828-7.009-2.09-23.361-2.09-23.976-2.213-3.812-6.885-7.623-2.951-25.821 2.828-11.803 12.296-22.009 22.378-22.869Z" fill="#fff"/><path d="M243.659 228.203s.246-10.205 7.131-12.664c6.886-2.459 12.419.738 12.788 1.476.492.737 6.27-2.337 10.943.737 5.41 3.566 4.795 10.574 2.951 12.911-1.845 2.336-9.222 8.483-9.099 9.59.123 1.107.615 3.566.615 3.566s-4.918-1.599-5.287 2.705c-.369 4.303 4.057 4.057 4.057 4.057s.738 5.287-.738 7.377c-1.475 2.214-16.23 3.197-17.705 3.197-2.582 0-6.394-4.18-6.517-9.344 0-.369-7.869-3.689-7.869-11.681 0-10.82 8.73-11.927 8.73-11.927Z" fill="#261616"/><defs><linearGradient id="Illustration__a" x1="161.035" y1="572.415" x2="158.602" y2="328.645" gradientUnits="userSpaceOnUse"><stop stop-color="#B620E0"/><stop offset="1" stop-color="#244ADC" stop-opacity=".01"/></linearGradient><linearGradient id="Illustration__b" x1="325.76" y1="355.994" x2="324.684" y2="625.751" gradientUnits="userSpaceOnUse"><stop stop-color="#B620E0"/><stop offset="1" stop-color="#244ADC" stop-opacity=".01"/></linearGradient><linearGradient id="Illustration__c" x1="620.783" y1="327.207" x2="617.636" y2="547.719" gradientUnits="userSpaceOnUse"><stop stop-color="#B620E0"/><stop offset="1" stop-color="#244ADC" stop-opacity=".01"/></linearGradient></defs></svg>