<svg width="80" height="80" viewBox="0 0 80 80" fill="none" xmlns="http://www.w3.org/2000/svg">
<rect opacity="0.1" width="80" height="80" rx="12" fill="white"/>
<path fill-rule="evenodd" clip-rule="evenodd" d="M50.909 23.6364C51.9131 23.6364 52.7271 24.4504 52.7271 25.4545C52.7271 26.387 52.0252 27.1555 51.121 27.2605L50.909 27.2727H29.0908C28.1583 27.2727 27.3899 27.9746 27.2848 28.8789L27.2726 29.0909V50.9091C27.2726 51.8415 27.9745 52.61 28.8787 52.715L29.0908 52.7273H50.909C51.9131 52.7273 52.7271 53.5413 52.7271 54.5454C52.7271 55.4779 52.0252 56.2464 51.121 56.3514L50.909 56.3636H29.0908C26.1859 56.3636 23.8114 54.0929 23.6455 51.2296L23.6362 50.9091V29.0909C23.6362 26.186 25.907 23.8115 28.7703 23.6456L29.0908 23.6364H50.909ZM48.3369 41.8182L45.9869 44.1689L45.8357 44.3402C45.2811 45.0534 45.3315 46.0848 45.9869 46.7402C46.697 47.4502 47.8482 47.4502 48.5582 46.7402L54.0128 41.2856L54.164 41.1144C54.7186 40.4011 54.6682 39.3698 54.0128 38.7143L48.5582 33.2598L48.387 33.1085C47.6737 32.554 46.6424 32.6044 45.9869 33.2598L45.8357 33.4311C45.2811 34.1443 45.3315 35.1757 45.9869 35.8311L48.3369 38.1818H36.3635L36.1515 38.194C35.2472 38.2991 34.5453 39.0676 34.5453 40C34.5453 41.0041 35.3593 41.8182 36.3635 41.8182H48.3369Z" fill="white"/>
</svg>
