<svg width="26" height="26" viewBox="0 0 26 26" fill="none" xmlns="http://www.w3.org/2000/svg">
<path fill-rule="evenodd" clip-rule="evenodd" d="M0 2C0 0.89543 0.895431 0 2 0H24C25.1046 0 26 0.895431 26 2V18.8C26 19.9046 25.1046 20.8 24 20.8H7.86732C7.44789 20.8 7.03908 20.9319 6.69871 21.1769L0 26V2ZM19 5C19.5523 5 20 5.44772 20 6C20 6.55228 19.5523 7 19 7H7C6.44772 7 6 6.55228 6 6C6 5.44772 6.44772 5 7 5H19ZM18 13C18 12.4477 17.5523 12 17 12H7C6.44772 12 6 12.4477 6 13C6 13.5523 6.44771 14 7 14H17C17.5523 14 18 13.5523 18 13Z" fill="#DEDEDE"/>
</svg>
