<svg width="80" height="80" viewBox="0 0 80 80" fill="none" xmlns="http://www.w3.org/2000/svg">
<path fill-rule="evenodd" clip-rule="evenodd" d="M56.3635 34.2273V34.5454V38.5C56.3635 39.3284 55.6919 40 54.8635 40H52.409C51.5805 40 50.909 39.3284 50.909 38.5V36.3636H46.5591C50.2552 38.5907 52.7271 42.643 52.7271 47.2727C52.7271 48.2769 51.9131 49.0909 50.909 49.0909C49.9048 49.0909 49.0908 48.2769 49.0908 47.2727C49.0908 42.2519 45.0206 38.1818 39.9999 38.1818C34.9791 38.1818 30.909 42.2519 30.909 47.2727C30.909 48.2769 30.0949 49.0909 29.0908 49.0909C28.0866 49.0909 27.2726 48.2769 27.2726 47.2727C27.2726 42.643 29.7446 38.5907 33.4406 36.3636H29.0908V38.5C29.0908 39.3284 28.4192 40 27.5908 40H25.1362C24.3078 40 23.6362 39.3284 23.6362 38.5V34.5454V34.2273C23.6362 33.3988 24.3078 32.7273 25.1362 32.7273H25.4544H27.5908H52.409H54.5453H54.8635C55.6919 32.7273 56.3635 33.3988 56.3635 34.2273Z" fill="white"/>
<rect width="80" height="80" rx="12" fill="white" fill-opacity="0.1"/>
</svg>
