<svg width="71" height="80" viewBox="0 0 71 80" fill="none" xmlns="http://www.w3.org/2000/svg">
<rect width="71" height="80" rx="12" fill="white" fill-opacity="0.104076"/>
<path fill-rule="evenodd" clip-rule="evenodd" d="M25.818 23.6364H45.1816C47.8552 23.6364 50.0225 26.0784 50.0225 29.0909V50.9091C50.0225 53.9215 47.8552 56.3636 45.1816 56.3636H25.818C23.1444 56.3636 20.9771 53.9215 20.9771 50.9091V29.0909C20.9771 26.0784 23.1444 23.6364 25.818 23.6364ZM45.1816 27.2727H25.818C24.9268 27.2727 24.2043 28.0867 24.2043 29.0909V50.9091C24.2043 51.9132 24.9268 52.7273 25.818 52.7273H45.1816C46.0728 52.7273 46.7952 51.9132 46.7952 50.9091V29.0909C46.7952 28.0867 46.0728 27.2727 45.1816 27.2727ZM41.9543 34.5454C42.8455 34.5454 43.568 35.3595 43.568 36.3636C43.568 37.2961 42.945 38.0645 42.1425 38.1696L41.9543 38.1818H29.0452C28.154 38.1818 27.4316 37.3678 27.4316 36.3636C27.4316 35.4312 28.0545 34.6627 28.857 34.5577L29.0452 34.5454H41.9543ZM40.3407 43.6364C40.3407 42.6322 39.6182 41.8182 38.7271 41.8182H29.0452L28.857 41.8304C28.0545 41.9354 27.4316 42.7039 27.4316 43.6364C27.4316 44.6405 28.154 45.4545 29.0452 45.4545H38.7271L38.9152 45.4423C39.7178 45.3373 40.3407 44.5688 40.3407 43.6364Z" fill="white"/>
</svg>
