<svg width="28" height="28" viewBox="0 0 28 28" fill="none" xmlns="http://www.w3.org/2000/svg">
<path fill-rule="evenodd" clip-rule="evenodd" d="M7 1.5C7 0.671573 7.67157 0 8.5 0C9.32843 0 10 0.671573 10 1.5V5H18V1.5C18 0.671573 18.6716 0 19.5 0C20.3284 0 21 0.671573 21 1.5V5H26C27.1046 5 28 5.89543 28 7V26C28 27.1046 27.1046 28 26 28H2C0.895431 28 0 27.1046 0 26V7C0 5.89543 0.895431 5 2 5H7V1.5ZM7 13C7 12.4477 7.44772 12 8 12H19C19.5523 12 20 12.4477 20 13C20 13.5523 19.5523 14 19 14H8C7.44772 14 7 13.5523 7 13ZM8 19C7.44772 19 7 19.4477 7 20C7 20.5523 7.44771 21 8 21H17C17.5523 21 18 20.5523 18 20C18 19.4477 17.5523 19 17 19H8Z" fill="#DEDEDE"/>
</svg>
