<svg width="34" height="34" viewBox="0 0 34 34" fill="none" xmlns="http://www.w3.org/2000/svg">
<path fill-rule="evenodd" clip-rule="evenodd" d="M16.7568 0.333496C7.68916 0.333496 0.312012 7.75816 0.312012 16.8842C0.312012 26.0095 7.68916 33.4348 16.7568 33.4348C25.8237 33.4348 33.2015 26.0095 33.2015 16.8842C33.2015 7.75816 25.825 0.333496 16.7568 0.333496ZM26.1092 14.9528V22.6595C26.1092 24.6668 24.4876 26.2982 22.4945 26.2982H11.019C9.02522 26.2982 7.40433 24.6668 7.40433 22.6595V14.9528V11.1102C7.40433 9.1035 9.02522 7.47216 11.019 7.47216H22.4938C24.4876 7.47216 26.1092 9.1035 26.1092 11.1102V14.9528ZM20.0495 16.8842C20.0495 18.7115 18.5704 20.1975 16.7561 20.1975C14.9411 20.1975 13.4633 18.7108 13.4653 16.8835C13.466 16.1622 13.6985 15.4962 14.0879 14.9522C14.6874 14.1175 15.6592 13.5708 16.7581 13.5708C17.8563 13.5708 18.8287 14.1182 19.4269 14.9528C19.8151 15.4968 20.0495 16.1628 20.0495 16.8842ZM23.9451 12.8308V10.0535V9.64016L23.5324 9.6415L20.7742 9.65016L20.7848 12.8415L23.9451 12.8308ZM16.7568 22.0328C19.5779 22.0328 21.8725 19.7222 21.8725 16.8842C21.8725 16.2015 21.7354 15.5488 21.4923 14.9528H24.2856V22.6595C24.2856 23.6555 23.4808 24.4622 22.4931 24.4622H11.0184C10.0294 24.4622 9.22593 23.6555 9.22593 22.6595V14.9528H12.0179C11.7768 15.5488 11.6417 16.2015 11.6417 16.8842C11.6417 19.7222 13.9356 22.0328 16.7568 22.0328Z" fill="white"/>
<mask id="mask0_54_617" style="mask-type:alpha" maskUnits="userSpaceOnUse" x="0" y="0" width="34" height="34">
<path fill-rule="evenodd" clip-rule="evenodd" d="M16.7568 0.333496C7.68916 0.333496 0.312012 7.75816 0.312012 16.8842C0.312012 26.0095 7.68916 33.4348 16.7568 33.4348C25.8237 33.4348 33.2015 26.0095 33.2015 16.8842C33.2015 7.75816 25.825 0.333496 16.7568 0.333496ZM26.1092 14.9528V22.6595C26.1092 24.6668 24.4876 26.2982 22.4945 26.2982H11.019C9.02522 26.2982 7.40433 24.6668 7.40433 22.6595V14.9528V11.1102C7.40433 9.1035 9.02522 7.47216 11.019 7.47216H22.4938C24.4876 7.47216 26.1092 9.1035 26.1092 11.1102V14.9528ZM20.0495 16.8842C20.0495 18.7115 18.5704 20.1975 16.7561 20.1975C14.9411 20.1975 13.4633 18.7108 13.4653 16.8835C13.466 16.1622 13.6985 15.4962 14.0879 14.9522C14.6874 14.1175 15.6592 13.5708 16.7581 13.5708C17.8563 13.5708 18.8287 14.1182 19.4269 14.9528C19.8151 15.4968 20.0495 16.1628 20.0495 16.8842ZM23.9451 12.8308V10.0535V9.64016L23.5324 9.6415L20.7742 9.65016L20.7848 12.8415L23.9451 12.8308ZM16.7568 22.0328C19.5779 22.0328 21.8725 19.7222 21.8725 16.8842C21.8725 16.2015 21.7354 15.5488 21.4923 14.9528H24.2856V22.6595C24.2856 23.6555 23.4808 24.4622 22.4931 24.4622H11.0184C10.0294 24.4622 9.22593 23.6555 9.22593 22.6595V14.9528H12.0179C11.7768 15.5488 11.6417 16.2015 11.6417 16.8842C11.6417 19.7222 13.9356 22.0328 16.7568 22.0328Z" fill="white"/>
</mask>
<g mask="url(#mask0_54_617)">
</g>
</svg>
