<svg width="783" height="740" viewBox="0 0 783 740" fill="none" xmlns="http://www.w3.org/2000/svg">
<path d="M88.2463 598.917H22.9111C22.9111 598.917 29.3418 614.339 34.1004 625.683C37.1871 633.075 44.3894 637.791 52.492 637.791C54.5498 637.791 56.6076 637.791 58.6654 637.791C66.6394 637.791 73.9703 632.948 77.057 625.683C81.8157 614.211 88.2463 598.917 88.2463 598.917Z" fill="#5850FB"/>
<path d="M55.4501 612.682C73.8471 612.682 88.7607 605.206 88.7607 595.985C88.7607 586.764 73.8471 579.288 55.4501 579.288C37.0531 579.288 22.1394 586.764 22.1394 595.985C22.1394 605.206 37.0531 612.682 55.4501 612.682Z" fill="#8882F8"/>
<path d="M45.1611 497.843C45.1611 497.843 48.7622 534.423 49.1481 544.237C49.5339 554.052 51.9775 593.691 52.8778 594.965C53.7781 596.24 61.6235 596.877 62.5238 594.201C63.4241 591.524 58.9226 552.012 58.1509 542.326C57.3793 532.639 51.8489 501.157 52.8778 498.735C53.7781 496.441 45.1611 497.843 45.1611 497.843Z" fill="#27D893"/>
<path d="M48.6337 416.015C48.6337 416.015 57.8938 416.653 69.5975 444.566C81.3013 472.479 56.2218 496.441 56.2218 496.441L49.534 498.608L41.0455 496.441C41.0455 496.441 15.9661 472.479 27.6698 444.566C39.3736 416.78 48.6337 416.015 48.6337 416.015Z" fill="#0BEF96"/>
<path d="M47.862 458.969V421.369C47.9906 420.349 48.2478 420.094 49.2767 420.222C50.177 420.476 50.177 420.604 50.3056 421.369V449.792C54.2926 445.076 58.5368 440.487 63.2955 438.703C63.2955 438.703 63.4241 438.575 63.8099 438.575C66.2536 438.83 64.8388 440.615 63.9385 440.997C58.4082 443.291 54.4212 448.517 50.3056 453.488V499.627C50.177 500.902 47.9906 501.284 47.862 499.627V462.537C46.4472 461.39 44.7753 459.223 43.2319 457.694C40.4024 454.762 37.573 451.704 34.1004 450.429C34.1004 450.429 32.4284 448.007 34.6149 448.135C35.1293 448.135 35.1293 448.262 35.3865 448.39C40.4024 450.301 44.3894 454.635 47.862 458.969Z" fill="#27D893"/>
<path d="M0.40389 446.988C22.1394 455.655 39.2449 471.842 49.5339 498.735C49.5339 498.735 38.8591 507.657 20.0816 497.716C-1.26807 486.244 0.40389 446.988 0.40389 446.988Z" fill="#08FF9F"/>
<path d="M98.5354 446.988C76.7998 455.655 59.6943 471.842 49.4053 498.735C49.4053 498.735 60.0802 507.657 78.8576 497.716C100.207 486.244 98.5354 446.988 98.5354 446.988Z" fill="#08FF9F"/>
<path d="M55.7073 533.786C55.7073 533.786 60.466 514.157 74.9992 510.589C89.5325 507.02 95.0628 506.255 97.8923 504.343C100.722 502.431 104.58 498.353 104.58 498.353C104.58 498.353 106.638 514.922 100.465 524.609C94.2911 534.296 80.9154 542.453 71.7839 541.688C63.6813 541.051 55.7073 533.786 55.7073 533.786Z" fill="#08FF9F"/>
<path d="M14.9371 518.491C16.0946 516.324 42.5889 520.275 45.4183 528.178C47.9906 535.06 50.0484 537.737 50.0484 537.737C50.0484 537.737 44.7753 538.629 34.4863 540.541C25.0975 542.453 18.4097 534.423 14.9371 518.491Z" fill="#08FF9F"/>
<path d="M102.265 500.647C103.551 499.372 104.58 498.353 104.58 498.353C104.58 498.353 104.709 499.5 104.837 501.284C103.808 503.196 102.394 505.363 101.236 507.402C96.2203 515.432 90.1755 523.207 81.5585 527.031C78.4718 528.433 75.2565 529.58 71.9125 530.599C72.1698 530.982 72.427 531.492 72.6842 531.747C75.6423 535.443 81.3013 536.208 86.5744 535.953C86.5744 535.953 87.3461 536.08 87.7319 536.717C86.5744 537.482 85.4169 538.119 84.1307 538.629C81.8157 538.502 78.8576 537.865 77.057 537.355C73.8417 536.462 71.0123 534.168 69.3403 531.237C65.0961 532.511 60.8519 533.531 56.479 534.423C55.9646 533.913 55.5787 533.658 55.5787 533.658C55.5787 533.658 55.7073 533.021 56.0932 532.001C56.2218 532.001 56.3504 532.001 56.479 531.874C65.4819 529.835 74.9992 528.178 82.716 523.589C82.9732 522.697 83.6163 521.55 84.0021 520.658C85.6741 516.707 85.9313 512.246 85.9313 507.912C86.8316 507.657 87.6033 507.53 88.375 507.402C88.5036 512.118 88.1177 516.962 86.3172 521.423C87.3461 520.658 88.2463 519.893 89.1466 519.001C94.5484 513.648 98.7926 507.275 102.265 500.647Z" fill="#13CF85"/>
<path d="M17.1235 517.981C22.7825 520.403 28.3128 523.079 33.7146 526.011C33.9718 526.011 34.1004 526.138 34.229 526.266C35.901 527.158 37.4443 528.05 39.1163 529.07C39.1163 527.668 39.2449 526.138 38.9877 524.609C38.8591 523.972 38.7305 523.207 38.6018 522.57C39.7594 523.079 40.7883 523.589 41.6885 524.227C41.9458 526.138 41.8172 528.433 41.8172 530.727C44.1322 532.129 46.3186 533.658 48.505 535.188C49.5339 536.972 50.0484 537.865 50.0484 537.865C50.0484 537.865 49.5339 537.992 48.3764 538.119C48.2478 537.992 48.1192 537.992 48.1192 537.865C45.5469 536.08 42.9747 534.296 40.4024 532.639C40.1452 532.639 39.888 532.511 39.7594 532.256C37.5729 530.982 35.3865 529.707 33.2001 528.433C28.3128 528.943 23.2969 529.58 18.4097 529.452C18.0238 528.688 17.7666 527.795 17.3808 526.903C21.1105 526.903 25.2261 526.648 29.3417 526.266C24.7117 523.844 20.0816 521.805 15.323 519.766C15.1943 519.383 15.1943 518.873 15.0657 518.491C15.1943 518.236 15.966 517.981 17.1235 517.981Z" fill="#13CF85"/>
<path d="M137.128 240.313C137.128 232.903 141.084 226.004 147.466 222.299C204.389 189.465 477.393 31.5562 528.191 2.29967C533.168 -0.638762 539.422 -0.511004 544.272 2.55518C546.059 3.705 547.463 4.47155 547.463 4.47155L536.359 293.204L148.742 530.578C148.742 530.578 148.742 530.578 148.614 530.578C141.467 526.49 137.128 518.825 137.128 510.648V240.313Z" fill="#7AABE4"/>
<path d="M547.846 319.906L782.815 435.654C782.815 435.654 782.815 443.064 782.815 448.813C782.815 453.029 780.646 456.862 776.944 458.906C732.273 484.713 444.72 650.926 392.008 681.46C386.902 684.399 380.521 684.399 375.288 681.46L163.292 558.941C154.23 553.702 148.742 544.121 148.614 533.645C148.614 531.728 148.614 530.578 148.614 530.578L547.846 319.906Z" fill="#96BEEE"/>
<path d="M547.846 4.216L148.742 234.947V530.578L547.846 299.848V4.216Z" fill="#1D58A3"/>
<path d="M530.616 37.5608L165.972 248.233V497.233L530.616 286.561V37.5608Z" fill="#60A2F2"/>
<path d="M474.458 183.077C459.652 183.588 451.867 200.452 446.762 208.756C437.572 223.448 425.32 240.057 407.834 236.735C395.709 234.436 386.52 223.193 379.117 212.717C377.713 210.8 377.585 210.673 376.82 209.778C370.949 202.879 362.652 197.641 353.208 198.408C335.467 199.686 322.449 214.505 311.855 226.898C304.453 235.458 297.943 244.784 291.434 253.727C285.563 261.776 277.778 270.336 267.312 268.291C256.335 266.247 249.443 255.005 245.614 246.7C245.614 246.7 244.721 245.167 243.445 245.295C238.722 245.806 245.614 257.304 253.145 264.714C259.016 270.336 266.929 274.168 275.097 271.996C285.308 269.314 292.2 259.859 297.943 251.683C310.196 234.436 322.449 216.422 341.593 206.201C349.506 201.985 360.1 200.963 367.885 206.84C372.225 210.034 375.288 214.761 378.479 218.977C388.306 232.136 402.091 245.423 419.576 240.185C444.592 232.519 453.781 199.813 466.034 190.742C470.501 187.421 477.01 186.271 481.988 189.848C486.072 192.659 489.135 196.747 491.177 201.346C491.177 201.346 492.071 202.752 493.347 202.624C497.176 202.113 492.326 194.32 489.008 190.615C485.306 186.271 480.712 182.949 474.458 183.077Z" fill="white"/>
<path d="M474.727 191.729C477.793 186.413 477.805 180.673 474.753 178.909C471.7 177.145 466.74 180.025 463.674 185.341C460.608 190.657 460.596 196.396 463.649 198.16C466.701 199.924 471.661 197.045 474.727 191.729Z" fill="white"/>
<path d="M353.911 205.904C356.977 200.588 356.988 194.848 353.936 193.084C350.884 191.32 345.924 194.2 342.858 199.516C339.791 204.832 339.78 210.571 342.832 212.335C345.884 214.099 350.844 211.22 353.911 205.904Z" fill="white"/>
<path d="M240.254 297.42C240.254 290.777 244.976 282.6 250.72 279.279C275.991 264.714 339.934 227.664 365.205 213.1C370.949 209.778 375.671 212.461 375.671 219.105C375.671 238.396 375.671 275.701 375.671 294.993C375.671 301.636 370.949 309.813 365.205 313.134C339.934 327.699 275.991 364.749 250.72 379.313C244.976 382.635 240.254 379.952 240.254 373.308C240.254 354.017 240.254 316.712 240.254 297.42Z" fill="#BFDCFF"/>
<path d="M255.314 315.562C255.314 314.029 255.825 312.24 256.846 310.579C257.867 308.918 259.143 307.513 260.42 306.747C272.928 299.592 304.708 281.195 317.088 274.041C318.492 273.274 319.768 273.146 320.662 273.657C321.683 274.168 322.193 275.446 322.193 276.979C322.193 278.512 321.683 280.301 320.662 281.962C319.768 283.622 318.364 285.028 317.088 285.794C304.58 292.949 272.8 311.346 260.42 318.5C259.016 319.267 257.739 319.395 256.846 318.884C255.825 318.245 255.314 317.095 255.314 315.562Z" fill="white"/>
<path d="M255.314 335.62C255.314 334.087 255.825 332.298 256.846 330.637C257.867 328.976 259.143 327.571 260.42 326.805C272.928 319.65 304.708 301.253 317.088 294.099C318.492 293.332 319.768 293.204 320.662 293.715C321.683 294.226 322.193 295.504 322.193 297.037C322.193 298.57 321.683 300.359 320.662 302.02C319.768 303.68 318.364 305.086 317.088 305.852C304.58 313.007 272.8 331.404 260.42 338.558C259.016 339.325 257.739 339.453 256.846 338.942C255.825 338.431 255.314 337.153 255.314 335.62Z" fill="white"/>
<path d="M782.815 435.654L547.846 299.848L148.742 530.578L383.584 666.385L782.815 435.654Z" fill="#C3D8F2"/>
<path d="M677.775 394.899L556.142 324.633L191.499 535.305L313.131 605.572L677.775 394.899Z" fill="#60A2F2"/>
<path d="M639.358 518.569L568.012 477.303L455.568 542.204L527.042 583.47L639.358 518.569Z" fill="#60A2F2"/>
<path d="M639.358 518.569L527.042 583.47V603.4L639.358 538.499V518.569Z" fill="#7FAEE6"/>
<path d="M712.983 534.602C712.983 534.602 712.598 541.618 712.983 542.129C713.368 542.639 721.576 550.166 723.628 550.549C725.68 550.932 734.273 550.676 733.504 547.359C732.606 544.042 726.834 541.491 725.808 539.067C724.782 536.643 725.039 533.836 725.039 533.836L718.883 532.815L712.983 534.602Z" fill="white"/>
<path d="M684.254 543.915C684.254 543.915 684.254 550.932 684.895 552.462C685.536 553.993 686.434 554.759 691.949 557.055C697.464 559.224 705.031 561.01 705.544 558.714C706.185 556.417 703.877 555.014 701.696 552.59C699.516 550.294 697.464 546.977 697.208 544.935C696.951 542.766 696.951 541.618 696.951 541.618L691.051 542.384L684.254 543.915Z" fill="white"/>
<path d="M682.33 500.921L684.126 543.787C688.999 547.614 693.488 548.38 696.951 543.022L698.362 496.455L682.33 500.921Z" fill="#FF9A72"/>
<path d="M711.187 491.863L712.855 534.729C717.344 538.556 721.576 539.322 724.911 533.964L726.193 487.397L711.187 491.863Z" fill="#FF9A72"/>
<path d="M633.465 477.829C633.465 477.829 627.052 482.039 626.154 484.336C625.257 486.632 624.23 489.439 627.052 488.928C629.874 488.418 640.006 487.015 642.314 482.549C644.623 477.957 645.649 475.66 645.649 475.66L633.465 477.829Z" fill="#FF9A72"/>
<path d="M704.262 436.749C704.262 436.749 711.444 433.432 714.394 434.197C717.344 434.963 717.857 437.259 716.318 438.535C714.779 439.811 709.392 443.638 709.392 443.638L704.262 436.749Z" fill="#FF9A72"/>
<path d="M665.144 393.882C665.144 393.882 649.24 407.788 645.392 414.678C642.314 420.291 630.9 455.758 632.823 476.936C633.208 481.018 638.595 482.039 644.879 479.615C651.164 477.191 653.986 460.478 653.986 460.478C653.986 460.478 662.194 468.771 667.837 472.853C670.274 474.512 672.326 476.426 673.096 478.339C675.789 484.718 675.404 505.641 687.075 503.855C700.029 501.941 720.806 496.455 724.013 492.373C734.53 478.977 702.338 449.251 703.877 448.486C705.416 447.72 711.7 443.255 711.059 441.852C710.418 440.448 703.62 435.983 702.851 429.094C702.081 422.205 700.157 404.216 697.079 400.516C694.001 396.817 687.075 392.606 687.075 392.606L665.144 393.882Z" fill="url(#paint0_linear_0_292)"/>
<path d="M638.852 433.687C638.082 442.235 637.569 453.844 640.006 459.713C642.443 465.454 646.419 471.067 649.368 474.767C648.086 477.063 646.547 478.977 644.751 479.743C638.467 482.167 633.08 481.146 632.695 477.063C631.797 464.561 635.26 447.083 638.852 433.687Z" fill="#6600C1"/>
<path d="M653.986 460.606C654.883 448.996 657.32 421.439 658.475 421.95C660.014 422.588 661.168 431.901 664.887 442.49C674.378 469.281 685.665 474.512 689.897 481.529C693.232 486.887 693.103 498.497 689.384 503.6C688.614 503.728 687.845 503.855 687.075 503.983C675.404 505.769 675.789 484.846 673.096 478.467C672.326 476.553 670.274 474.64 667.837 472.981C662.45 469.154 654.755 461.371 653.986 460.606Z" fill="#6600C1"/>
<path d="M697.849 401.792C700.542 407.15 702.209 422.843 702.979 429.222C703.749 436.111 710.546 440.576 711.187 441.979C711.829 443.383 705.544 447.848 704.005 448.613C704.005 448.613 703.877 448.741 704.005 448.741C701.953 447.21 697.977 443.51 695.54 440.576C692.59 436.876 694.386 425.522 695.54 420.801C696.695 415.953 694.258 413.147 692.077 409.064C689.641 404.344 694.771 401.792 697.849 401.792Z" fill="#6600C1"/>
<path d="M695.027 369.898C695.027 369.898 695.54 386.355 693.232 390.565C691.18 394.265 686.049 396.817 685.023 398.22C682.843 401.537 685.793 406.768 682.33 407.406C676.174 408.554 671.941 404.726 669.633 402.43C667.324 400.134 665.913 397.072 665.016 395.541C664.246 394.137 655.14 394.01 655.14 394.01L651.036 382.4C658.988 372.704 671.428 366.708 687.204 363.263L695.027 369.898Z" fill="#FF9A72"/>
<path d="M663.348 394.775L662.45 391.841C669.376 398.475 677.713 399.879 686.691 396.817C685.921 397.327 685.408 397.837 685.152 398.22C682.971 401.537 685.921 406.768 682.458 407.406C676.302 408.554 672.07 404.727 669.761 402.43C667.452 400.134 666.042 397.072 665.144 395.541C664.887 395.286 664.246 395.031 663.348 394.775Z" fill="#E0754A"/>
<path d="M680.406 367.984C680.406 367.984 676.943 374.873 671.557 375.128C662.835 375.511 665.785 382.017 664.503 382.017C663.092 381.89 661.04 379.466 659.116 379.211C656.679 378.828 654.755 380.997 655.396 384.952C655.909 388.652 660.014 390.693 661.553 390.565C663.092 390.565 665.657 392.734 666.683 394.137C667.709 395.668 666.555 398.475 665.785 399.623C660.527 408.043 641.032 398.22 645.008 392.224C650.523 383.931 647.701 367.218 652.831 360.967C664.887 346.168 678.482 352.674 679.508 352.164C683.997 349.612 689.128 353.185 691.051 354.716C698.875 361.095 698.105 375.383 695.156 375.894C690.41 376.914 680.406 367.856 680.406 367.984Z" fill="#363131"/>
<path fill-rule="evenodd" clip-rule="evenodd" d="M563.07 619.823C561.794 617.91 561.667 615.613 563.708 613.062C565.621 610.765 568.683 610 571.617 610H572C577.23 610.128 583.481 612.807 582.971 618.42C582.588 622.502 577.358 624.799 573.531 624.671C572.765 624.671 572.127 624.671 571.362 624.544C570.597 624.416 569.704 624.161 568.811 623.906L567.918 624.799L377.713 739.872L374.396 740L291.477 695.221C290.456 695.476 289.436 695.604 288.543 695.604H288.543C287.777 695.604 287.139 695.604 286.374 695.476C281.016 694.711 273.745 690.118 278.592 684.122C280.506 681.825 283.695 680.932 286.502 680.932H286.884C292.115 681.06 298.365 683.739 297.855 689.352C297.855 689.863 297.728 690.5 297.472 690.883L375.799 733.238L563.07 619.823ZM286.629 687.439C285.864 687.439 284.716 687.694 284.716 687.694C286.502 688.714 288.798 688.97 290.711 688.459C290.711 688.332 288.543 687.439 286.629 687.439ZM569.704 616.889C569.704 616.889 570.852 616.634 571.617 616.634C573.531 616.634 575.572 617.527 575.699 617.655C573.786 618.165 571.49 617.91 569.704 616.889Z" fill="#6760FE"/>
<path d="M325.387 592.438C326.541 591.417 327.054 590.012 326.797 588.48C326.541 586.948 321.411 571.115 320.513 570.859C297.814 562.177 240.874 553.749 223.817 547.238C220.868 546.088 217.533 546.727 215.097 548.77C201.118 560.9 143.28 592.566 123.915 609.42C122.889 610.314 129.301 624.359 129.558 625.892C129.814 627.424 130.84 628.573 132.251 629.084C152.77 636.873 214.712 660.367 232.538 667.134C235.488 668.283 238.822 667.645 241.258 665.602C256.007 652.833 308.458 607.25 325.387 592.438Z" fill="#B425A3"/>
<path d="M319.487 575.839C320.642 574.818 321.155 573.413 320.898 571.881C320.642 570.349 319.616 569.199 318.205 568.689C297.686 560.9 235.744 537.406 217.918 530.638C214.968 529.489 211.634 530.128 209.197 532.171C194.449 544.939 142.126 590.523 125.069 605.334C123.915 606.356 123.402 607.76 123.659 609.293C123.915 610.825 124.941 611.974 126.352 612.485C146.871 620.273 208.813 643.768 226.639 650.535C229.588 651.684 232.923 651.046 235.359 649.003C250.107 636.106 302.559 590.523 319.487 575.839Z" fill="#FF6DC5"/>
<path d="M222.407 613.761C244.717 613.761 262.804 603.357 262.804 590.523C262.804 577.688 244.717 567.284 222.407 567.284C200.096 567.284 182.01 577.688 182.01 590.523C182.01 603.357 200.096 613.761 222.407 613.761Z" fill="#B425A3"/>
<path d="M287.555 584.394C295.133 584.394 301.277 580.507 301.277 575.711C301.277 570.916 295.133 567.029 287.555 567.029C279.976 567.029 273.833 570.916 273.833 575.711C273.833 580.507 279.976 584.394 287.555 584.394Z" fill="#B425A3"/>
<path d="M161.233 292.822C167.194 289.242 172.648 287.963 177.341 288.731C179.751 289.114 189.897 294.228 191.8 295.762C196.112 299.215 190.912 301.388 190.912 309.954C190.912 329.388 177.721 353.041 161.36 363.013C157.809 365.187 158.189 373.242 155.019 372.602C150.58 371.579 144.365 367.36 141.575 366.082C135.613 363.269 131.809 356.237 131.809 345.881C131.682 326.575 144.872 302.794 161.233 292.822Z" fill="#C52C00"/>
<path d="M192.137 345.211C203.538 324.453 203.34 302.358 191.696 295.859C180.052 289.36 161.371 300.919 149.97 321.677C138.57 342.434 138.767 364.529 150.411 371.028C162.055 377.527 180.736 365.968 192.137 345.211Z" fill="#FA9547"/>
<path fill-rule="evenodd" clip-rule="evenodd" d="M168.463 315.835V309.954L173.536 306.886V312.767C176.453 311.361 178.609 310.721 180.258 311.105C182.287 311.488 183.809 313.023 184.57 315.835L176.833 322.228C176.453 320.95 175.819 320.31 174.931 320.055C174.685 319.972 174.44 319.996 174.16 320.024C174.006 320.039 173.842 320.055 173.663 320.055V327.214C173.79 327.214 173.79 327.214 173.916 327.087C178.229 325.552 181.399 325.169 183.048 325.808C184.824 326.447 185.585 328.365 185.585 331.561C185.585 334.886 184.443 338.593 182.034 342.429C180.004 345.625 177.214 348.566 173.663 351.123V357.004L168.589 360.073V354.191C165.672 355.598 163.263 356.109 161.487 355.598C159.077 355.086 157.428 353.296 156.667 350.228L164.911 343.707C165.292 345.37 165.926 346.392 167.068 346.776C167.575 346.904 168.082 346.904 168.716 346.776V338.593C165.165 339.616 162.755 340 161.614 339.744C159.204 339.233 157.936 337.187 157.936 333.735C157.936 330.539 158.95 327.214 161.106 323.762C162.502 320.694 165.165 318.137 168.463 315.835ZM173.536 336.931V343.963C174.677 343.068 175.565 342.173 176.199 341.15C176.96 340.128 177.341 338.977 177.341 337.826C177.341 337.059 177.087 336.548 176.707 336.292C176.326 336.036 175.438 336.164 173.916 336.676C173.853 336.739 173.79 336.771 173.726 336.803C173.663 336.835 173.599 336.867 173.536 336.931ZM166.18 325.169C166.687 324.402 167.448 323.635 168.463 322.867V328.749C167.194 329.004 166.433 329.132 166.053 329.004C165.546 328.876 165.292 328.365 165.292 327.726C165.292 326.959 165.546 326.064 166.18 325.169Z" fill="white"/>
<path d="M682.658 128.371C671.219 123.532 656.602 125.569 641.095 135.63C607.157 157.79 581.228 210.131 583.389 252.667C584.405 273.425 592.032 287.943 603.471 294.82L624.571 305.391C624.571 305.391 645.798 291.637 648.975 289.472C682.913 267.312 708.842 214.971 706.682 172.562C705.919 158.426 702.233 147.219 696.386 139.323L700.326 142.507L705.029 139.451L686.09 130.027C684.819 129.39 683.802 128.881 682.658 128.371Z" fill="#6F6AFF"/>
<path d="M583.261 252.158C583.261 252.285 583.261 252.412 583.261 252.54C584.278 273.298 591.905 287.816 603.344 294.693L619.105 302.589L618.597 292.273L601.565 261.582L583.261 252.158Z" fill="#5850FB"/>
<path d="M711.222 243.918C732.552 197.622 728.298 150.127 701.721 137.835C675.145 125.543 636.309 153.108 614.979 199.405C593.649 245.701 597.903 293.196 624.48 305.488C651.056 317.78 689.892 290.214 711.222 243.918Z" fill="#F2F1FF"/>
<path d="M601.565 261.582C602.836 287.179 614.148 303.353 630.291 307.301L659.525 223.885L601.565 261.582Z" fill="#9995FF"/>
<path d="M633.214 142.38C633.214 142.38 639.696 150.785 637.027 153.332C634.358 156.007 633.85 155.625 631.943 154.606C629.909 153.587 630.418 153.078 630.163 157.535C629.909 161.992 625.079 166.577 623.427 163.775C621.774 160.973 620.885 146.837 621.266 143.908C621.52 141.106 633.214 142.38 633.214 142.38Z" fill="#FF9794"/>
<path d="M709.986 205.292C709.986 205.292 710.113 211.914 713.291 215.48C716.342 218.919 721.934 225.541 716.596 228.47C708.969 232.8 699.309 219.046 697.784 217.136C696.259 215.225 695.75 207.202 695.75 207.202L709.986 205.292Z" fill="#0E097A"/>
<path d="M671.727 211.914C671.727 211.914 671.092 217.008 674.778 220.065C678.464 223.121 683.04 231.399 677.701 234.456C670.075 238.786 658 224.14 656.475 222.23C654.949 220.319 657.11 210.259 657.11 210.259L671.727 211.914Z" fill="#0E097A"/>
<path d="M677.701 175.237C677.701 175.237 675.286 195.486 673.761 204.018C672.236 212.551 672.236 213.952 668.677 214.971C664.736 216.117 657.618 214.334 657.11 210.768C656.729 207.202 660.033 181.604 659.144 175.237C658.254 168.997 677.701 175.237 677.701 175.237Z" fill="#FF9794"/>
<path d="M706.046 165.94C706.046 165.94 709.859 194.085 709.986 204.273C709.986 211.15 696.513 211.66 695.623 206.693C694.479 200.325 689.903 171.671 689.395 168.869C689.014 165.94 706.046 165.94 706.046 165.94Z" fill="#FF9794"/>
<path d="M689.522 134.229C689.522 134.229 703.631 152.059 705.283 156.771C706.936 161.61 706.936 167.978 706.936 167.978C700.708 172.308 694.098 172.053 687.488 169.888C687.488 169.888 681.769 156.771 677.066 151.931C672.49 147.092 671.219 146.073 671.219 146.073C673.253 155.242 679.608 161.992 678.718 176.51C678.718 176.51 662.957 179.694 660.415 177.02C657.873 174.345 649.102 155.879 647.577 153.714C646.052 151.549 641.603 142.253 641.095 139.578C640.586 136.904 642.112 132.064 645.416 131.937C648.594 131.81 689.522 134.229 689.522 134.229Z" fill="#0E097A"/>
<path d="M665.753 132.956C659.144 133.083 652.788 138.559 652.788 138.559C652.788 138.559 653.17 142.253 661.686 156.007C666.77 164.157 671.092 172.944 674.778 177.402C677.066 177.02 678.718 176.765 678.718 176.765C679.608 162.374 673.38 155.625 671.346 146.583V146.328C671.346 146.328 669.312 136.904 676.557 141.488C683.294 145.691 694.861 148.365 699.309 171.289C701.979 170.907 704.521 169.888 707.063 168.105C707.063 168.105 707.063 161.61 705.41 156.898C703.758 152.059 689.649 134.357 689.649 134.357C689.649 134.357 679.354 133.72 668.677 133.211C668.295 133.211 667.914 133.211 667.533 133.211H666.897L665.753 132.956Z" fill="#2F29A6"/>
<path d="M676.43 68.5157C676.43 68.5157 685.2 73.8645 688.124 81.5056C689.395 85.0715 689.522 134.357 689.522 134.357C689.522 134.357 666.389 133.465 659.271 133.211C652.153 133.083 641.857 139.196 641.857 139.196C641.857 139.196 633.214 136.522 634.739 132.829C636.265 129.135 646.687 106.339 646.687 99.3349C646.687 82.9065 634.739 79.7227 634.739 79.7227C634.739 79.7227 640.84 73.1004 644.654 70.2986C654.695 63.1669 676.43 68.5157 676.43 68.5157Z" fill="white"/>
<path d="M686.09 77.6851C684.057 81.2509 681.26 86.9818 681.26 91.3117C681.26 97.6794 679.481 113.853 687.87 134.229C688.887 134.229 689.395 134.229 689.395 134.229C689.395 134.229 689.268 84.9441 687.997 81.3783C687.615 80.1048 686.853 78.8312 686.09 77.6851Z" fill="#9F6588"/>
<path d="M646.56 96.7878C646.687 97.552 646.687 98.4434 646.687 99.3349C646.687 105.83 637.79 125.824 635.248 131.682V135.376C637.027 137.668 641.984 139.196 641.984 139.196C641.984 139.196 647.323 136.012 652.916 134.229C651.517 131.173 649.992 127.48 648.721 124.933C646.052 119.329 650.373 113.598 650.246 107.358C649.992 102.773 647.704 98.6981 646.56 96.7878Z" fill="#EDD7E4"/>
<path d="M682.913 54.6343C682.913 54.6343 689.522 49.0308 689.522 44.1914C689.522 36.5503 686.98 29.1638 681.896 28.6544C678.972 28.3997 672.49 21.9048 666.389 22.0321C657.11 22.2868 659.779 28.5271 647.704 30.0553C643.891 30.5647 646.687 38.8426 645.67 38.8426C641.095 38.8426 640.586 50.8137 644.654 53.9975C648.721 57.1813 651.136 58.0728 651.136 58.0728L673.888 56.0352L682.913 54.6343Z" fill="#DA141B"/>
<path d="M683.421 49.2855C683.421 49.2855 682.277 68.0063 678.972 69.4072C675.795 70.6807 674.397 70.8081 672.871 70.6807C671.346 70.426 671.727 73.2277 671.346 76.0295C670.965 78.8312 668.295 79.0859 665.372 77.6851C662.449 76.1568 654.949 71.0628 654.06 69.4072C653.17 67.7516 653.678 64.8225 654.06 63.549C654.441 62.2755 650.628 61.1293 649.611 58.2002C648.721 55.2711 649.23 50.8138 651.009 50.4317C652.788 50.0496 655.458 48.6488 657.619 50.6864C659.779 52.724 661.05 51.5779 661.813 49.0308C662.83 45.3376 667.914 50.0496 674.015 44.0641C676.049 41.8991 683.421 49.2855 683.421 49.2855Z" fill="#FF9794"/>
<path d="M649.865 90.0382C649.865 90.0382 645.543 107.995 640.332 122.004C637.536 129.517 636.9 132.574 635.121 141.998C634.231 146.71 622.156 146.455 620.376 144.163C618.597 141.743 630.036 90.2929 634.485 79.7227C638.425 70.426 652.153 81.1236 649.865 90.0382Z" fill="#9F6588"/>
<defs>
<linearGradient id="paint0_linear_0_292" x1="733.102" y1="453.314" x2="663.434" y2="381.171" gradientUnits="userSpaceOnUse">
<stop stop-color="#A241F9"/>
<stop offset="1" stop-color="#6A00C8"/>
</linearGradient>
</defs>
</svg>
