<svg width="24" height="24" viewBox="0 0 24 24" fill="none" xmlns="http://www.w3.org/2000/svg">
<path opacity="0.2" fill-rule="evenodd" clip-rule="evenodd" d="M12 24C18.6274 24 24 18.6274 24 12C24 5.37258 18.6274 0 12 0C5.37258 0 0 5.37258 0 12C0 18.6274 5.37258 24 12 24Z" fill="#06C66C"/>
<path d="M15.4983 8.89436C15.7407 8.61727 16.1619 8.58919 16.439 8.83165C16.6948 9.05545 16.7384 9.43154 16.5529 9.70601L16.5017 9.77237L11.8351 15.1057C11.5992 15.3752 11.1974 15.4073 10.9229 15.1921L10.8619 15.1381L8.19526 12.4714C7.93491 12.2111 7.93491 11.789 8.19526 11.5286C8.43558 11.2883 8.81374 11.2698 9.07527 11.4732L9.13807 11.5286L11.3007 13.6907L15.4983 8.89436Z" fill="#06C66C"/>
</svg>
