<svg width="274" height="33" fill="none" xmlns="http://www.w3.org/2000/svg"><path d="M106.088 26h-3.164l-1.764-4.844h-7.756L91.64 26h-3.08l6.972-18.48h3.584L106.088 26Zm-11.844-7.28h6.076l-3.024-8.624-3.052 8.624Zm27.021-9.66.476 2.352h-.168a.528.528 0 0 0-.168-.028c-.896 0-1.577.196-2.044.588-.467.373-.7.924-.7 1.652l-1.456-.672c0-.747.159-1.41.476-1.988a3.463 3.463 0 0 1 1.344-1.4c.597-.336 1.269-.504 2.016-.504h.224Zm-4.424 14.756c1.419 0 2.52.317 3.304.952.784.616 1.176 1.475 1.176 2.576 0 .97-.308 1.801-.924 2.492-.616.71-1.456 1.25-2.52 1.624-1.045.373-2.249.56-3.612.56-2.296 0-3.995-.355-5.096-1.064-1.101-.71-1.652-1.596-1.652-2.66 0-.747.261-1.4.784-1.96.541-.56 1.447-.877 2.716-.952l-.168.448c-.784-.168-1.419-.467-1.904-.896-.467-.448-.7-1.073-.7-1.876 0-.803.308-1.484.924-2.044.616-.56 1.484-.887 2.604-.98l1.568.756h-.336c-.859.075-1.465.27-1.82.588-.355.317-.532.672-.532 1.064 0 .467.168.812.504 1.036.355.224.849.336 1.484.336h4.2Zm-2.576 5.964c1.027 0 1.867-.103 2.52-.308.672-.187 1.167-.439 1.484-.756.336-.299.504-.635.504-1.008 0-.43-.177-.775-.532-1.036-.336-.261-.952-.392-1.848-.392h-4.508c-.523 0-.961.13-1.316.392-.355.28-.532.653-.532 1.12 0 .616.373 1.101 1.12 1.456.747.355 1.783.532 3.108.532Zm-.112-18.06c1.232 0 2.296.196 3.192.588.915.392 1.615.943 2.1 1.652.504.71.756 1.54.756 2.492s-.252 1.783-.756 2.492c-.485.71-1.185 1.26-2.1 1.652-.896.392-1.96.588-3.192.588-1.941 0-3.435-.43-4.48-1.288-1.027-.877-1.54-2.025-1.54-3.444 0-.952.252-1.783.756-2.492.504-.71 1.204-1.26 2.1-1.652.915-.392 1.969-.588 3.164-.588Zm0 2.1c-.859 0-1.577.243-2.156.728-.56.467-.84 1.101-.84 1.904 0 .803.28 1.447.84 1.932.579.485 1.297.728 2.156.728.877 0 1.596-.243 2.156-.728.579-.485.868-1.13.868-1.932 0-.803-.289-1.437-.868-1.904-.56-.485-1.279-.728-2.156-.728Zm16.073 12.46c-1.4 0-2.632-.29-3.696-.868a6.164 6.164 0 0 1-2.492-2.492c-.578-1.101-.868-2.408-.868-3.92s.29-2.81.868-3.892c.598-1.101 1.419-1.941 2.464-2.52 1.046-.579 2.231-.868 3.556-.868 1.363 0 2.52.28 3.472.84a5.622 5.622 0 0 1 2.184 2.296c.504.97.756 2.072.756 3.304 0 .336-.009.653-.028.952-.018.299-.046.56-.084.784h-11.256V17.6h9.94l-1.484.448c0-1.27-.317-2.24-.952-2.912-.634-.69-1.502-1.036-2.604-1.036-.802 0-1.502.187-2.1.56-.597.373-1.054.933-1.372 1.68-.317.728-.476 1.624-.476 2.688 0 1.045.168 1.932.504 2.66.336.728.812 1.279 1.428 1.652.616.373 1.344.56 2.184.56.934 0 1.69-.177 2.268-.532a3.763 3.763 0 0 0 1.372-1.484l2.38 1.12a5.699 5.699 0 0 1-1.372 1.764c-.56.485-1.232.859-2.016 1.12-.784.261-1.642.392-2.576.392Zm10.028-.28V12h2.66l.196 3.64-.392-.392c.261-.803.634-1.465 1.12-1.988a4.45 4.45 0 0 1 1.764-1.176 6.534 6.534 0 0 1 2.184-.364c.989 0 1.876.196 2.66.588a4.327 4.327 0 0 1 1.904 1.708c.466.765.7 1.736.7 2.912V26h-2.996v-8.148c0-1.381-.29-2.333-.868-2.856-.56-.541-1.27-.812-2.128-.812a3.86 3.86 0 0 0-1.792.448c-.579.28-1.064.737-1.456 1.372-.374.635-.56 1.484-.56 2.548V26h-2.996Zm23.384-14.28c1.12 0 2.072.168 2.856.504a5.316 5.316 0 0 1 2.016 1.372 6.177 6.177 0 0 1 1.232 2.044l-2.828 1.12c-.243-.859-.635-1.512-1.176-1.96-.523-.467-1.214-.7-2.072-.7-.84 0-1.559.196-2.156.588-.598.373-1.055.924-1.372 1.652-.299.728-.448 1.624-.448 2.688 0 1.045.158 1.932.476 2.66.317.728.774 1.279 1.372 1.652.597.373 1.306.56 2.128.56.634 0 1.185-.103 1.652-.308a3.116 3.116 0 0 0 1.148-.924c.317-.41.532-.905.644-1.484l2.716.924a5.999 5.999 0 0 1-1.232 2.212c-.542.616-1.223 1.101-2.044 1.456-.822.336-1.764.504-2.828.504-1.382 0-2.604-.29-3.668-.868a6.158 6.158 0 0 1-2.492-2.492c-.579-1.101-.868-2.408-.868-3.92s.289-2.81.868-3.892c.597-1.101 1.418-1.941 2.464-2.52 1.064-.579 2.268-.868 3.612-.868Zm21.529.28-6.132 15.652c-.411 1.083-.859 1.941-1.344 2.576-.467.635-1.008 1.092-1.624 1.372-.616.28-1.335.42-2.156.42a6.074 6.074 0 0 1-1.876-.28 5.183 5.183 0 0 1-1.484-.7l.728-2.324c.354.299.728.523 1.12.672.41.15.849.224 1.316.224.504 0 .952-.14 1.344-.42.41-.261.774-.793 1.092-1.596l.616-1.512-1.484-3.472L170.915 12h3.36l3.108 8.792.812 2.632.924-2.884 2.94-8.54h3.108Zm24.753-1.904h-10.36v5.376h8.12v2.576h-8.12V26h-2.996V7.52h13.356v2.576Zm7.941 1.624c1.363 0 2.567.29 3.612.868 1.045.579 1.857 1.419 2.436 2.52.597 1.083.896 2.38.896 3.892s-.299 2.819-.896 3.92a6.033 6.033 0 0 1-2.436 2.492c-1.045.579-2.249.868-3.612.868s-2.567-.29-3.612-.868c-1.045-.579-1.867-1.41-2.464-2.492-.597-1.101-.896-2.408-.896-3.92s.299-2.81.896-3.892c.597-1.101 1.419-1.941 2.464-2.52s2.249-.868 3.612-.868Zm0 2.352c-.84 0-1.559.196-2.156.588-.579.373-1.027.924-1.344 1.652-.317.728-.476 1.624-.476 2.688 0 1.045.159 1.941.476 2.688.317.728.765 1.288 1.344 1.68.597.373 1.316.56 2.156.56.84 0 1.549-.187 2.128-.56.579-.392 1.027-.952 1.344-1.68.317-.747.476-1.643.476-2.688 0-1.064-.159-1.96-.476-2.688-.317-.728-.765-1.279-1.344-1.652-.579-.392-1.288-.588-2.128-.588ZM228.574 26V12h2.548l.28 2.52c.373-.915.924-1.605 1.652-2.072.747-.485 1.661-.728 2.744-.728.28 0 .56.028.84.084.28.037.513.103.7.196l-.42 2.632a3.496 3.496 0 0 0-.7-.168c-.243-.056-.579-.084-1.008-.084-.579 0-1.148.159-1.708.476-.56.299-1.027.756-1.4 1.372-.355.616-.532 1.4-.532 2.352V26h-2.996Zm17.286-14.28c1.12 0 2.072.168 2.856.504a5.301 5.301 0 0 1 2.016 1.372 6.16 6.16 0 0 1 1.232 2.044l-2.828 1.12c-.242-.859-.634-1.512-1.176-1.96-.522-.467-1.213-.7-2.072-.7-.84 0-1.558.196-2.156.588-.597.373-1.054.924-1.372 1.652-.298.728-.448 1.624-.448 2.688 0 1.045.159 1.932.476 2.66.318.728.775 1.279 1.372 1.652.598.373 1.307.56 2.128.56.635 0 1.186-.103 1.652-.308a3.1 3.1 0 0 0 1.148-.924c.318-.41.532-.905.644-1.484l2.716.924a5.985 5.985 0 0 1-1.232 2.212c-.541.616-1.222 1.101-2.044 1.456-.821.336-1.764.504-2.828.504-1.381 0-2.604-.29-3.668-.868a6.164 6.164 0 0 1-2.492-2.492c-.578-1.101-.868-2.408-.868-3.92s.29-2.81.868-3.892c.598-1.101 1.419-1.941 2.464-2.52 1.064-.579 2.268-.868 3.612-.868Zm15.835 14.56c-1.4 0-2.632-.29-3.696-.868a6.158 6.158 0 0 1-2.492-2.492c-.579-1.101-.868-2.408-.868-3.92s.289-2.81.868-3.892c.597-1.101 1.419-1.941 2.464-2.52s2.231-.868 3.556-.868c1.363 0 2.52.28 3.472.84a5.622 5.622 0 0 1 2.184 2.296c.504.97.756 2.072.756 3.304 0 .336-.009.653-.028.952-.019.299-.047.56-.084.784h-11.256V17.6h9.94l-1.484.448c0-1.27-.317-2.24-.952-2.912-.635-.69-1.503-1.036-2.604-1.036-.803 0-1.503.187-2.1.56-.597.373-1.055.933-1.372 1.68-.317.728-.476 1.624-.476 2.688 0 1.045.168 1.932.504 2.66.336.728.812 1.279 1.428 1.652.616.373 1.344.56 2.184.56.933 0 1.689-.177 2.268-.532a3.763 3.763 0 0 0 1.372-1.484l2.38 1.12a5.699 5.699 0 0 1-1.372 1.764c-.56.485-1.232.859-2.016 1.12-.784.261-1.643.392-2.576.392Z" fill="#fff"/><path fill-rule="evenodd" clip-rule="evenodd" d="M0 1c17.673 0 32 14.327 32 32C14.327 33 0 18.673 0 1Zm32 32c17.673 0 32-14.327 32-32-17.673 0-32 14.327-32 32Z" fill="#0091FF"/></svg>