<svg width="1600" height="667" viewBox="0 0 1600 667" fill="none" xmlns="http://www.w3.org/2000/svg">
<mask id="mask0_0_803" style="mask-type:alpha" maskUnits="userSpaceOnUse" x="0" y="0" width="1600" height="667">
<rect width="1600" height="667" transform="matrix(-1 0 0 1 1600 0)" fill="white"/>
</mask>
<g mask="url(#mask0_0_803)">
<g style="mix-blend-mode:multiply">
<rect width="1600" height="1600" transform="matrix(-1 0 0 1 1600 -636)" fill="#F5F6F8"/>
<mask id="mask1_0_803" style="mask-type:alpha" maskUnits="userSpaceOnUse" x="0" y="-636" width="1600" height="1600">
<rect width="1600" height="1600" transform="matrix(-1 0 0 1 1600 -636)" fill="white"/>
</mask>
<g mask="url(#mask1_0_803)">
<path opacity="0.12" fill-rule="evenodd" clip-rule="evenodd" d="M327.944 916.689L220.854 937.646L224.985 962.095H205.601L158.888 695.693L148.083 962.095H129.017L132.512 872.236L83.5751 870.966L78.4906 962.095H68.9574L74.0417 870.648L0.63562 868.743V849.692L61.0129 851.279L65.4618 819.209L0.317871 821.115V811.589L66.7329 809.684L75.6306 747.132L36.2264 703.948L0 726.81V715.379L29.5532 696.645L0 663.94V649.652L77.5372 735.066C81.6682 711.251 91.8372 651.24 96.286 625.838L0 642.349V622.98L47.9841 614.724L36.5442 543.282C23.8331 545.822 11.4398 548.362 0 550.902V531.216L27.3287 525.5L0 490.573V459.455L48.3019 521.055L110.904 508.036L84.2106 321.015L0 336.256V303.869L8.89783 302.281L0 241.952V110.18L9.85107 176.86L99.4639 155.268C95.015 131.771 82.9395 69.2193 78.4906 45.405L0 60.0111V40.6422L50.5264 31.1165L10.8044 -185.434L0 -183.529V-215.917L26.0576 -220.68L19.0665 -269.578L0 -273.706V-283.549L17.7955 -279.739L2.22449 -387.697L0 -387.379V-628.379L5.71997 -588.372L65.7795 -584.561L68.6395 -636H78.1729L75.3129 -583.926L126.157 -580.751L128.381 -636H147.448L145.224 -579.481L215.77 -575.036L204.965 -635.682H224.35L234.836 -576.623L341.291 -604.883L335.571 -635.682H367.984L378.789 -576.941L451.877 -564.557L460.775 -635.682H480.159L470.943 -561.382L542.443 -549.316L573.267 -611.868C555.154 -617.266 524.33 -626.157 491.281 -635.682H559.921L581.847 -629.332L585.025 -635.682H620.616L612.989 -620.441C624.111 -617.266 639.047 -613.138 653.982 -609.011C656.207 -615.361 659.702 -624.887 663.198 -635.682H673.366L663.198 -606.47C680.993 -601.39 696.882 -596.945 703.237 -595.357L749.315 -609.646L746.455 -635.682H755.988L758.53 -612.821L817.637 -631.237L816.048 -636H836.385L844.012 -615.043L894.538 -636H912.334L927.905 -595.675L1000.36 -620.759C997.497 -625.839 994.638 -630.92 991.778 -636H1014.02C1024.83 -617.584 1036.58 -599.802 1048.98 -583.926L1057.56 -636H1076.94L1074.4 -621.394L1122.7 -592.817L1148.12 -636H1159.25L1099.5 -534.71C1100.77 -533.757 1102.36 -532.805 1103.63 -531.852C1122.7 -519.469 1147.49 -510.261 1176.09 -503.275L1166.55 -636H1176.09L1185.94 -501.053C1196.43 -498.83 1207.23 -496.925 1218.35 -495.02L1228.84 -635.682H1248.22L1244.73 -588.054L1360.08 -602.025L1361.03 -635.682H1380.1L1379.46 -604.248L1406.16 -607.423L1434.76 -635.365H1448.42L1421.73 -609.328L1518.97 -621.076L1517.06 -635.365H1526.59L1528.18 -622.029L1566.63 -626.792L1565.36 -635.365H1597.78L1599.05 -627.427V-386.427L1516.11 -371.186L1501.81 -302.601L1599.05 -282.279V-272.436L1569.81 -278.469L1560.6 -207.661L1599.05 -214.964V-182.577L1556.78 -174.639L1588.88 43.4999L1599.05 41.5948V60.9637L1591.74 62.2338L1599.05 111.132V242.905L1572.99 65.7266L1482.42 82.5553L1506.26 321.333L1598.73 304.822V337.209L1513.88 352.45L1598.73 460.726V491.843L1514.52 384.52L1537.72 545.187L1599.05 532.486V552.172C1574.26 557.253 1553.6 561.698 1540.58 564.238L1550.43 632.506L1599.05 624.25V643.619L1593.33 644.572L1599.05 650.922V665.211L1582.2 646.477L1553.29 651.557L1565.68 738.241L1599.36 716.967V728.398L1567.27 748.719L1576.48 813.812L1599.05 813.176V822.702L1577.76 823.337L1581.57 850.644L1599.05 851.279V870.331L1584.43 870.013L1597.78 964H1565.36L1552.02 871.601L1515.47 876.364L1526.28 963.682H1516.74L1509.12 903.671L1448.1 963.682H1434.44L1507.85 891.922L1505.94 877.634L1381.69 894.145L1380.1 963.682H1361.03L1362.62 896.685L1252.04 911.291L1248.22 963.682H1228.84L1230.74 936.693L1173.55 926.85L1176.09 963.682H1166.55L1165.6 952.569L1158.93 963.682H1147.81L1164.33 935.74L1163.69 925.262L1085.2 911.926L1076.62 963.682H1057.24L1084.25 801.428L947.607 811.906C962.542 857.63 984.469 913.831 1013.39 963.682H991.142C979.384 942.408 968.898 920.499 959.364 898.908L895.809 923.04L911.698 963.682H893.903L900.258 961.142L868.481 879.539L810.01 893.192L835.75 963.682H815.412L766.792 830.005L740.417 826.512L755.67 963.682H746.137L740.099 908.751L696.564 897.003L673.049 963.682H662.88C671.778 938.281 682.9 906.528 687.349 894.462L658.113 886.524L620.298 963.682H584.707L600.914 930.343L473.486 890.97L480.477 940.821L559.285 963.682H490.646C487.15 962.73 483.654 961.777 479.841 960.507L479.523 963.682H460.139L461.092 955.109C422.006 943.679 383.237 932.565 360.04 925.897L367.031 963.682H334.618L327.944 916.689ZM345.104 833.815L445.521 820.162L435.353 749.354L332.711 766.818L345.104 833.815ZM559.603 708.711L552.612 669.973L446.157 689.977L451.559 727.128L559.603 708.711ZM454.101 746.179L458.55 776.344L529.096 766.183L522.105 734.748L454.101 746.179ZM810.328 708.076L857.676 706.806L850.367 666.163L810.328 685.532C810.963 689.342 811.281 692.835 811.281 696.645C811.281 700.456 810.963 704.266 810.328 708.076ZM795.71 740.464C793.168 743.639 790.308 746.497 787.448 749.037L823.357 796.665L857.359 738.876L795.71 740.464ZM797.934 655.685L889.136 611.867L789.99 575.669L775.055 635.363C784.27 640.444 791.897 647.429 797.934 655.685ZM1429.99 554.395L1418.23 528.04L1272.69 493.43L1293.66 566.143L1429.99 554.395ZM1298.11 584.877L1307.96 634.728L1343.56 625.838L1341.01 581.384L1298.11 584.877ZM1501.17 -472.793C1468.76 -470.253 1431.26 -468.348 1391.86 -467.713L1392.17 -458.187L1505.94 -422.942L1501.17 -472.793ZM1540.26 -495.655L1529.45 -556.302L1424.91 -543.283C1425.86 -532.17 1428.72 -503.275 1430.31 -488.352C1472.25 -489.939 1510.39 -492.797 1540.26 -495.655ZM1292.71 -367.693L1280.32 -257.195C1308.92 -254.019 1394.4 -244.176 1424.91 -240.366L1411.56 -356.262L1292.71 -367.693ZM1392.49 -448.026L1395.35 -376.901L1419.5 -374.678L1441.75 -378.806L1448.1 -430.88L1392.49 -448.026ZM1279.05 -247.669L1274.6 -207.661L1430.63 -188.61L1425.86 -230.523L1279.05 -247.669ZM621.251 -255.29L639.047 -192.737L712.135 -164.478C722.939 -194.325 731.202 -223.537 735.968 -241.001L621.251 -255.29ZM721.351 -315.936L665.422 -322.604L659.067 -282.914L716.584 -275.929L721.351 -315.936ZM443.297 91.1284L510.983 75.2522L477.299 -30.1655L419.146 -19.3698C423.277 -0.000793457 433.764 47.3102 443.297 91.1284ZM409.613 -17.7821L338.113 -4.44611L431.539 82.5553L409.613 -17.7821ZM1047.71 4.12701L937.12 -6.35126L925.045 41.5948L1057.56 45.405L1047.71 4.12701ZM1047.71 -79.0641L946.653 -43.819L941.887 -25.0851L1039.44 -15.877L1047.71 -79.0641ZM544.35 75.2523L562.463 131.771L641.271 100.654L620.298 47.9453L544.35 75.2523ZM616.802 38.7371L598.689 -6.98633C571.678 8.57233 545.303 22.2258 530.05 29.8464L541.49 66.0441L616.802 38.7371ZM668.282 116.53L705.462 85.0955L660.973 21.9083L637.458 38.7371L668.282 116.53ZM672.095 125.738L674.002 130.184L767.11 138.122L813.823 75.8873L767.428 44.77L672.095 125.738ZM776.643 141.932L855.452 187.338L873.565 116.213L822.085 81.6027C813.188 93.0336 785.859 129.231 776.643 141.932ZM819.861 68.5842C823.992 63.5038 831.301 53.9781 836.703 47.3102L797.934 19.3681L775.055 38.737L819.861 68.5842ZM827.805 73.9821L875.789 106.052L882.463 80.0151L844.647 52.7081L827.805 73.9821ZM879.603 221.313L964.131 196.229L900.576 138.122L879.603 221.313ZM974.935 193.053L1084.25 160.666L1059.78 55.2483L922.82 51.1205L903.436 127.326L974.935 193.053ZM1093.47 -10.7966L1108.4 -137.488L1065.5 -143.839L1048.66 -14.9244L1093.47 -10.7966ZM1094.42 8.57233L1057.56 5.07959L1075.35 80.9677L1111.9 69.2193L1094.42 8.57233ZM1077.58 90.4933L1093.47 157.808L1133.82 145.742L1114.76 78.4275L1077.58 90.4933ZM1088.06 179.4L1140.18 320.698L1178.95 304.504L1138.91 164.159L1088.06 179.4ZM1078.85 182.258L1028.96 197.181L1050.57 261.321C1064.87 256.876 1091.24 248.62 1102.05 245.445L1078.85 182.258ZM1035.31 276.245C1025.46 279.737 1008.62 285.453 988.6 292.438L1020.38 364.516L1063.28 359.436L1035.31 276.245ZM1032.14 267.036L1010.53 202.262L936.485 224.171L954.28 294.026L1032.14 267.036ZM927.269 227.028L874.201 242.905L852.274 329.906L945.382 297.201L927.269 227.028ZM852.592 196.864L811.599 173.367L791.579 244.81L844.012 231.474L852.592 196.864ZM803.337 168.287L768.064 147.965L678.133 140.344L726.435 261.321L781.092 247.35L803.337 168.287ZM684.171 207.659L640.953 221.948L656.524 279.102L707.368 266.084L684.171 207.659ZM680.675 198.769L645.084 109.227L565.641 140.662L593.605 227.663L680.675 198.769ZM562.145 234.649L481.748 248.938L549.116 361.341L590.745 323.555L562.145 234.649ZM552.294 204.167L513.843 84.4604L445.204 100.654C452.195 132.089 458.232 160.666 461.41 174.319L521.152 209.882L552.294 204.167ZM436.941 107.64L408.342 142.567L449.97 167.334L436.941 107.64ZM524.012 11.4301C556.107 -4.76367 628.242 -43.184 661.927 -71.7611C663.515 -73.0312 665.104 -74.6188 666.693 -76.2064L589.474 -142.251L502.721 -54.6148L524.012 11.4301ZM640.636 -123.835L665.74 -172.098L635.869 -183.529L603.138 -155.587L640.636 -123.835ZM647.944 -117.484L678.133 -91.765C689.255 -108.911 699.424 -132.09 708.64 -155.905L674.955 -168.923L647.944 -117.484ZM674.32 -57.155C659.384 -44.454 637.776 -30.1655 615.214 -16.8295L633.644 29.5289L722.622 -34.9283L681.629 -64.458C679.086 -61.9178 676.862 -59.3776 674.32 -57.155ZM668.6 16.1929L712.771 78.745L789.672 13.3352L730.884 -28.8954L668.6 16.1929ZM785.859 -13.0193L803.019 -69.856L760.437 -90.1774L742.641 -43.819L785.859 -13.0193ZM805.879 -79.3816L819.543 -124.787L789.355 -165.748L763.932 -99.3856L805.879 -79.3816ZM802.383 -1.27094L887.547 60.0111L918.371 -61.6003L826.216 -79.3817L802.383 -1.27094ZM920.278 -71.126L956.504 -214.329L869.752 -224.807L828.759 -88.5898L920.278 -71.126ZM949.196 -54.9323L1048.98 -89.8599L1056.29 -145.109L974.935 -157.175L949.196 -54.9323ZM1109.67 -147.014L1115.39 -194.96L988.6 -210.519L977.478 -166.701L1109.67 -147.014ZM1121.11 -226.395L1130.65 -267.673L995.273 -261.322L990.189 -242.271L1121.11 -226.395ZM1114.12 -21.5924L1205.32 -126.058L1209.14 -183.529L1134.46 -192.737L1114.12 -21.5924ZM1212.63 -215.282L1219.3 -256.56C1193.57 -260.37 1164.65 -265.133 1150.03 -267.038L1139.86 -224.172L1212.63 -215.282ZM1218.67 -182.259L1215.17 -128.598L1255.53 -124.787L1254.26 -178.131L1218.67 -182.259ZM1212 -119.072L1115.71 -8.57391L1259.03 5.07959L1255.85 -114.627C1242.82 -116.214 1219.62 -118.437 1212 -119.072ZM1115.07 10.4775L1194.2 288.31L1232.97 266.719L1150.67 13.9702L1115.07 10.4775ZM1184.03 323.238L1085.2 364.516L1096.33 397.538L1192.93 353.403L1184.03 323.238ZM1131.28 324.508L1105.54 254.018L1053.74 270.212L1079.17 346.417L1131.28 324.508ZM1066.45 368.961L1022.92 374.042L1032.77 438.816L1079.17 407.064L1066.45 368.961ZM1012.75 371.184L979.702 295.613C953.644 304.822 923.774 315.3 897.716 324.19L926.634 472.156L963.496 486.127L1024.19 444.532L1012.75 371.184ZM866.574 469.934L850.367 528.041L918.689 556.618L949.831 501.686L866.574 469.934ZM915.829 468.346L888.183 327.683C872.612 333.081 858.947 337.844 849.096 341.337L825.581 434.054L915.829 468.346ZM838.61 252.43L731.837 279.737L759.484 316.252L818.272 333.081L838.61 252.43ZM721.668 282.277L620.933 307.997L733.426 365.151L751.221 321.015L721.668 282.277ZM647.309 281.642L632.056 225.123L596.465 236.872L613.625 290.216L647.309 281.642ZM593.923 334.034L503.674 415.637L510.348 428.338C556.107 419.448 595.829 411.827 617.438 407.699L593.923 334.034ZM541.807 368.326L471.579 251.16L422.641 260.051L499.225 407.064L541.807 368.326ZM412.791 261.638L397.219 264.496L427.408 444.532C451.877 439.769 476.663 435.006 500.497 430.561L412.791 261.638ZM407.388 382.932L328.58 401.666L338.113 461.678C361.946 457.233 389.593 451.835 418.193 446.437L407.388 382.932ZM395.313 470.251L341.609 480.412L365.442 579.479L409.613 570.589L395.313 470.251ZM332.393 482.317L282.185 491.843L300.616 592.498L355.909 581.384L332.393 482.317ZM328.58 463.583L319.047 403.254L266.614 407.382L278.689 473.109C290.447 470.886 307.607 467.394 328.58 463.583ZM317.458 393.728L311.102 353.403L258.034 360.706L265.025 397.856L317.458 393.728ZM309.513 343.877L299.662 281.96L245.323 291.803L256.127 351.18L309.513 343.877ZM326.991 392.141L405.799 373.407L387.686 266.084L309.196 280.055L326.991 392.141ZM492.234 214.962L395.948 157.808L324.767 245.127L492.234 214.962ZM387.686 152.728L262.483 78.4275L234.518 112.402L360.04 186.385L387.686 152.728ZM400.079 137.487L433.128 97.1614L327.627 -1.27087L274.876 63.1863L400.079 137.487ZM323.496 -71.4435L398.491 -81.2867C396.266 -95.5753 394.042 -108.911 392.771 -115.579L318.729 -100.656L323.496 -71.4435ZM325.084 -62.2354L331.44 -22.8625L406.117 -36.8335C404.846 -45.4066 402.622 -58.7426 400.397 -72.3961L325.084 -62.2354ZM415.333 -38.4211L470.943 -48.8994L446.157 -126.693L402.304 -117.802L415.333 -38.4211ZM496.048 -75.5714L574.538 -154.952L512.89 -207.661L461.728 -181.624L496.048 -75.5714ZM595.829 -162.255L629.513 -190.832L610.765 -256.56L496.048 -270.531C494.459 -264.498 492.234 -258.782 489.057 -253.702L595.829 -162.255ZM640 -285.137L655.253 -382.616L590.109 -392.777L574.856 -293.075L640 -285.137ZM693.069 -79.6991L734.379 -49.8519L782.363 -174.639L749.315 -219.409C738.51 -180.989 718.173 -117.802 693.069 -79.6991ZM823.039 -136.218L850.685 -227.348L755.035 -239.096C754.399 -236.873 753.764 -234.333 753.128 -231.475L823.039 -136.218ZM838.292 -261.005L869.116 -257.195L921.549 -341.338L837.974 -354.357L838.292 -261.005ZM879.603 -255.925L959.682 -246.081L927.905 -333.4L879.603 -255.925ZM974.935 -260.37L1017.84 -426.117L926.316 -393.73L974.935 -260.37ZM997.815 -271.483L1072.17 -274.976L1092.19 -387.062L1029.28 -393.095L997.815 -271.483ZM1082.03 -275.294L1132.87 -277.516L1157.02 -380.394L1101.73 -385.792L1082.03 -275.294ZM1152.25 -276.564L1220.58 -266.085L1227.25 -307.363L1161.47 -316.254L1152.25 -276.564ZM1222.16 -214.012L1255.53 -209.884L1259.98 -249.892C1252.35 -251.162 1241.23 -252.749 1228.52 -254.654L1222.16 -214.012ZM1259.34 24.131L1160.83 14.9228L1211.04 168.604L1262.52 147.33L1259.34 24.131ZM1213.9 177.812L1241.87 263.544L1265.38 259.733L1262.84 157.808L1213.9 177.812ZM1245.04 272.752L1267.61 341.972L1265.7 269.259C1259.03 270.212 1250.45 271.799 1245.04 272.752ZM1235.83 275.927L1196.74 297.836L1238.37 443.897L1269.83 428.656L1268.56 375.629L1235.83 275.927ZM1195.15 362.611L1099.19 406.429L1129.06 495.971L1220.58 451.835L1195.15 362.611ZM1082.34 416.59L974.3 490.573L1067.41 526.135L1111.9 504.544L1082.34 416.59ZM1070.27 560.11L984.786 601.388L1007.03 642.666L1082.98 626.473L1070.27 560.11ZM1043.57 537.566L959.047 505.179L927.587 560.11L964.449 575.351L1043.57 537.566ZM847.507 537.566L835.114 582.337L901.211 606.469L953.009 581.702L847.507 537.566ZM857.359 466.441L821.132 452.47L792.532 566.143L826.216 578.527L857.359 466.441ZM816.048 342.289L759.484 326.096L705.144 460.09L780.457 483.587L816.048 342.289ZM729.613 374.042L622.84 319.745L679.722 496.923L729.613 374.042ZM623.476 426.433L532.274 443.897L549.752 542.329L653.982 521.372L623.476 426.433ZM534.181 565.191L431.221 586.147L439.166 642.031L538.63 590.593L534.181 565.191ZM531.003 546.139L513.525 447.39L414.379 466.441L428.679 566.778L531.003 546.139ZM412.473 589.64L304.111 611.549L314.916 669.656L421.053 648.699L412.473 589.64ZM291.718 721.095L245.323 727.128L259.623 800.793L305.382 795.078L291.718 721.095ZM290.129 711.569L268.838 595.673L221.49 603.929L243.734 717.602L290.129 711.569ZM265.343 576.939L250.725 498.193C235.79 501.369 211.003 506.449 181.768 512.482L198.928 588.37L265.343 576.939ZM247.547 479.459L229.752 382.297L115.353 398.173L130.606 503.909L247.547 479.459ZM233.247 261.321L310.467 247.35L354.32 194.006L228.798 120.023L210.05 142.885L233.247 261.321ZM192.254 151.775L112.81 171.144C117.259 193.688 128.699 251.16 134.101 279.102L214.181 264.814L192.254 151.775ZM205.283 118.118L299.662 2.85693L187.17 24.131L205.283 118.118ZM312.691 -19.0522L293.942 -136.853L159.523 -117.484L183.356 5.39709L312.691 -19.0522ZM240.556 -148.602L229.434 -227.348L141.092 -210.836L155.71 -136.218L240.556 -148.602ZM233.883 -260.687L270.109 -267.355L258.669 -332.765L222.125 -328.955L233.883 -260.687ZM238.967 -229.253C242.145 -207.344 247.547 -167.971 250.089 -150.189L290.765 -156.222L277.736 -236.873L238.967 -229.253ZM289.176 -271.166L358.451 -284.184C358.451 -285.454 358.451 -287.042 358.451 -288.312C358.451 -298.155 360.675 -307.681 364.171 -316.254L298.709 -355.627L280.914 -317.207L289.176 -271.166ZM296.485 -240.048L317.14 -110.499L442.979 -135.901L415.968 -219.727C395.313 -223.22 377.517 -235.921 367.349 -253.702L296.485 -240.048ZM428.361 -250.527C449.335 -250.527 466.495 -267.673 466.495 -288.63C466.495 -309.586 449.335 -326.732 428.361 -326.732C407.388 -326.732 390.228 -309.586 390.228 -288.63C390.228 -267.673 407.388 -250.527 428.361 -250.527ZM449.335 -221.632L459.186 -190.832L505.263 -214.329L477.299 -238.143C469.672 -230.84 460.139 -225.125 449.335 -221.632ZM497.001 -302.601L565.323 -294.345L580.894 -394.365L508.123 -405.796L476.028 -340.386C486.197 -330.225 493.823 -317.207 497.001 -302.601ZM671.142 -399.763L675.909 -437.865L536.723 -464.22L516.703 -423.577L671.142 -399.763ZM674.32 -379.759L667.011 -332.13L722.622 -325.462L728.024 -371.503L674.32 -379.759ZM726.117 -274.658L828.441 -262.275V-355.944L737.239 -370.233L726.117 -274.658ZM825.263 -375.631L792.532 -493.115L752.175 -477.873L775.372 -383.569L825.263 -375.631ZM835.432 -374.043L917.418 -361.342L859.901 -518.834L801.112 -496.607L835.432 -374.043ZM923.138 -402.62L970.169 -419.132L953.644 -478.508L903.118 -457.552L923.138 -402.62ZM979.067 -422.307L1020.7 -436.913L1041.03 -514.706L962.224 -482.001L979.067 -422.307ZM1034.04 -411.511L1165.28 -399.128L1171.32 -441.676L1048.34 -466.125L1034.04 -411.511ZM1163.69 -325.462L1228.84 -316.572L1237.74 -372.773L1176.09 -378.806L1163.69 -325.462ZM1236.78 -305.776L1230.11 -264.498L1260.93 -259.735L1265.7 -301.965L1236.78 -305.776ZM1266.97 -311.491L1273.33 -369.598L1247.27 -372.138L1238.37 -315.619L1266.97 -311.491ZM1273.33 -175.591L1274.6 -122.882C1289.85 -121.612 1320.68 -118.755 1333.07 -117.802L1331.16 -168.923L1273.33 -175.591ZM1352.77 137.804L1354.36 180.987C1365.16 180.67 1390.9 179.717 1401.71 179.4L1399.8 134.629L1352.77 137.804ZM1396.31 115.26L1348.96 38.7371L1352.14 118.435L1396.31 115.26ZM1355 190.513L1356.9 241.952C1372.47 238.777 1389 235.602 1404.25 232.744L1402.34 188.926L1355 190.513ZM1357.54 251.478L1365.48 315.617L1415.69 302.599L1405.52 241.952L1357.54 251.478ZM1360.4 352.133L1332.43 359.118L1335.29 397.221L1364.21 383.25L1360.4 352.133ZM1359.13 342.289L1348.32 253.065L1324.81 257.511L1331.48 348.957L1359.13 342.289ZM1315.27 259.733L1284.77 265.766L1288.58 419.448L1325.76 401.666L1315.27 259.733ZM1347.37 243.857L1345.46 191.148C1333.07 191.783 1299.7 193.688 1283.18 194.641L1284.77 256.241C1297.48 253.7 1320.99 248.938 1347.37 243.857ZM1344.83 181.305L1343.24 138.439L1281.59 142.885L1282.54 185.115L1344.83 181.305ZM1342.6 119.07L1338.79 25.0836L1278.41 20.6382L1280.95 123.198L1342.6 119.07ZM1338.47 15.5579L1336.88 -22.2274L1277.46 -20.6398L1278.41 11.1125L1338.47 15.5579ZM1336.25 -41.2789L1333.7 -107.959L1275.23 -113.039L1277.14 -39.6912L1336.25 -41.2789ZM1428.08 -156.857L1341.01 -167.336L1342.92 -117.167L1431.9 -118.119L1428.08 -156.857ZM1343.24 -107.641L1345.78 -41.5963L1439.21 -44.1365L1432.85 -108.594L1343.24 -107.641ZM1346.42 -22.2275L1348 19.3681L1378.51 68.9017L1442.38 -11.7492L1441.11 -24.7676L1346.42 -22.2275ZM1384.23 77.4749L1407.43 114.625L1455.09 111.132L1443.97 1.90436L1384.23 77.4749ZM1409.33 133.677L1413.78 230.521C1434.76 226.393 1453.51 222.583 1465.58 220.36L1456.68 130.184L1409.33 133.677ZM1470.98 -48.5818L1509.43 -53.9797L1490.37 -163.843L1459.86 -158.127L1470.98 -48.5818ZM1466.85 229.886L1415.05 240.047L1433.49 349.592L1477.02 328.636L1466.85 229.886ZM1417.28 312.125L1366.75 325.143L1373.43 378.487L1424.27 354.038L1417.28 312.125ZM1368.66 416.59L1265.06 466.441L1269.83 482.952L1413.78 517.245L1368.66 416.59ZM1256.17 470.569L1205.32 495.018L1227.57 571.541L1283.5 566.778L1256.17 470.569ZM1187.85 503.591L1143.99 524.548L1176.09 658.543L1231.38 652.827L1187.85 503.591ZM1111.58 675.054L1116.35 699.503L1244.09 696.01L1234.24 662.353L1111.58 675.054ZM1166.55 659.495L1135.09 528.993L1088.06 551.855L1109.99 665.846L1166.55 659.495ZM1084.57 635.998L948.56 665.211L953.327 703.948L1096.64 699.821L1084.57 635.998ZM997.18 644.889L975.889 605.516L928.54 628.378L945.382 656.002L997.18 644.889ZM938.709 662.988L920.278 632.506L859.583 661.718L867.527 706.489L944.111 704.266L938.709 662.988ZM741.37 658.543C720.397 658.543 703.237 675.689 703.237 696.645C703.237 717.602 720.397 734.748 741.37 734.748C762.344 734.748 779.503 717.602 779.503 696.645C779.186 675.689 762.344 658.543 741.37 658.543ZM722.304 629.33C728.342 627.743 734.697 626.79 741.37 626.79C742.324 626.79 743.277 626.79 744.23 626.79L777.915 492.795L701.331 468.981L684.171 511.529L722.304 629.33ZM659.702 539.789L552.929 561.38L554.518 570.906L684.171 656.002C687.031 652.192 689.891 648.699 693.386 645.524L659.702 539.789ZM557.061 583.607L578.669 705.219L671.778 689.342C672.731 680.134 675.273 671.561 679.404 663.94L557.061 583.607ZM531.321 732.843L538.63 764.595L624.111 752.212L607.587 719.825L531.321 732.843ZM551.023 660.13L540.536 600.436L440.755 651.875L444.886 680.134L551.023 660.13ZM329.215 747.767L432.493 730.303L422.324 658.225L316.822 678.864L329.215 747.767ZM280.278 906.211L324.131 897.638L306.971 804.286L261.529 810.001L280.278 906.211ZM217.359 918.594L261.529 910.021L233.565 766.5L192.254 775.709L217.359 918.594ZM190.665 765.865L231.658 756.657L202.423 606.786L163.654 613.454L190.665 765.865ZM70.5461 851.279L133.148 852.867L134.737 811.589L83.8927 755.705C81.0327 777.614 73.7239 829.37 70.5461 851.279ZM85.7994 743.639L135.372 798.253L142.681 617.582L106.455 623.615L85.7994 743.639ZM55.6108 538.519L67.0507 610.597L189.394 589.64L172.234 514.069C136.326 522.008 94.6971 530.581 55.6108 538.519ZM113.446 388.648L227.527 372.772L213.545 297.519L102.959 317.205L113.446 388.648ZM75.9484 289.58L124.568 281.007L114.717 230.521L67.0507 240.047L75.9484 289.58ZM27.9642 298.154L66.415 291.168L57.1996 241.952L20.6554 249.255L27.9642 298.154ZM13.0288 194.959L19.702 239.412L113.128 220.678L103.595 173.049L13.0288 194.959ZM108.997 152.093L188.441 132.724L167.786 27.6237L88.0238 42.5473L108.997 152.093ZM60.3773 28.2588L164.29 8.57239L146.812 -80.3342L43.853 -59.6951L60.3773 28.2588ZM7.30884 -579.481L18.431 -502.64L61.3307 -503.275L65.144 -575.988L7.30884 -579.481ZM61.9662 -484.224L21.291 -483.589L43.2175 -331.813H75.9484L61.9662 -484.224ZM76.9016 -321.969H44.4885L58.153 -227.665L85.1638 -232.745L76.9016 -321.969ZM94.3794 -234.651L112.493 -238.143L122.661 -485.176L71.4995 -484.224L94.3794 -234.651ZM74.995 -575.353L71.1816 -503.275L123.297 -504.228L126.157 -572.178L74.995 -575.353ZM122.344 -207.344L20.6554 -188.292L42.5819 -68.9033L145.223 -89.5424L122.344 -207.344ZM131.877 -241.636L224.35 -259.1C220.854 -280.056 214.499 -315.619 212.274 -328.002L134.737 -319.747L131.877 -241.636ZM135.372 -329.59L257.08 -342.608L247.865 -394.365L137.915 -395.317L135.372 -329.59ZM217.994 -566.78L145.541 -571.225L142.681 -499.783L229.752 -500.418L217.994 -566.78ZM231.023 -490.892L141.728 -490.257L138.232 -405.161L245.958 -404.208L231.023 -490.892ZM343.515 -596.945L237.061 -568.685L248.5 -503.275L354.955 -534.71L343.515 -596.945ZM250.089 -493.75L275.194 -350.229L356.226 -525.184L250.089 -493.75ZM362.582 -493.115L302.84 -364.518L368.62 -324.827C374.022 -333.4 381.013 -341.021 389.593 -346.736L362.582 -493.115ZM381.331 -568.368L420.099 -357.85C422.324 -358.167 424.548 -358.167 427.09 -358.167L451.559 -556.302L381.331 -568.368ZM470.626 -553.126L446.157 -355.944C446.792 -355.944 447.11 -355.627 447.746 -355.627L539.265 -541.696L470.626 -553.126ZM605.362 -604.248L540.854 -473.111L604.409 -461.045L648.58 -592.182L605.362 -604.248ZM657.795 -589.642C648.58 -562.652 621.251 -480.731 613.942 -459.139L676.862 -447.391L693.704 -579.798L657.795 -589.642ZM689.891 -396.905L764.886 -385.157L742.959 -474.381L697.517 -457.234L689.891 -396.905ZM699.106 -468.03L789.354 -502.323L768.064 -548.999L706.415 -526.454L699.106 -468.03ZM754.399 -592.499L713.088 -579.798L707.686 -537.25L764.568 -557.889L754.399 -592.499ZM825.263 -614.408L763.297 -595.039L774.737 -556.302L797.935 -505.498L856.723 -527.725L825.263 -614.408ZM905.66 -630.92L848.461 -607.105L860.854 -573.448L920.278 -594.087L905.66 -630.92ZM926.316 -575.671L867.527 -555.349L899.94 -466.76L951.102 -488.034L926.316 -575.671ZM1011.8 -605.2L935.214 -578.846L959.682 -491.527L1043.89 -526.454L1051.2 -554.079C1036.9 -569.638 1023.87 -586.784 1011.8 -605.2ZM1119.52 -585.831L1074.4 -612.503L1066.77 -566.145C1075.35 -556.937 1084.25 -548.999 1093.47 -541.696L1119.52 -585.831ZM1094.74 -516.929C1085.2 -523.279 1075.67 -530.582 1066.77 -538.52L1050.25 -475.016L1172.27 -450.884L1177.04 -484.859C1144.95 -492.479 1116.66 -502.958 1094.74 -516.929ZM1186.89 -482.954L1175.13 -398.175L1302.88 -386.109L1309.24 -468.983C1266.34 -470.57 1224.39 -475.016 1186.89 -482.954ZM1244.73 -569.955L1239.01 -493.75C1277.14 -488.987 1318.13 -487.082 1358.49 -487.082L1360.71 -584.244L1244.73 -569.955ZM1318.45 -468.348L1312.1 -384.839L1385.82 -377.854L1382.01 -467.395C1361.35 -467.395 1339.74 -467.713 1318.45 -468.348ZM1409.97 -589.959L1380.42 -586.466L1379.46 -547.093L1414.42 -551.539C1413.47 -560.112 1411.24 -578.528 1409.97 -589.959ZM1379.15 -537.568L1377.87 -487.082C1392.49 -487.082 1406.79 -487.399 1420.77 -488.034L1415.37 -542.013L1379.15 -537.568ZM1571.08 -609.646L1419.5 -591.229L1423.95 -552.809L1576.48 -571.86L1571.08 -609.646ZM1577.76 -562.335L1538.99 -557.572L1549.79 -496.607C1565.04 -498.195 1577.44 -499.465 1586.65 -500.418L1577.76 -562.335ZM1518.33 -392.777L1600 -407.701L1589.51 -481.366C1572.99 -479.461 1545.34 -476.286 1510.71 -473.746L1518.33 -392.777ZM1506.89 -412.781L1457.95 -428.022L1451.92 -380.711L1508.8 -391.19L1506.89 -412.781ZM1507.53 -371.186L1430.94 -357.215L1450.33 -188.61L1470.35 -192.42L1507.53 -371.186ZM1561.87 -282.597L1501.49 -295.297L1480.52 -194.325L1552.02 -207.661L1561.87 -282.597ZM1571.72 45.0875L1539.62 -173.051L1499.9 -165.748L1537.72 51.1205L1571.72 45.0875ZM1528.18 53.0256L1511.02 -44.7716L1471.62 -39.3737L1481.79 61.5987L1528.18 53.0256ZM1481.15 362.293L1385.82 408.017L1450.33 552.49L1507.53 547.727L1481.15 362.293ZM1510.39 566.778L1359.76 579.479L1362.3 623.932L1520.24 636.316L1510.39 566.778ZM1362.94 633.776L1366.43 692.2L1405.84 690.93V636.951L1362.94 633.776ZM1521.83 646.477L1415.37 638.221V691.247L1527.86 688.072L1521.83 646.477ZM1464.95 862.075L1551.06 850.644L1538.03 760.15L1456.37 771.263L1464.95 862.075ZM1536.76 750.624L1532.31 719.825L1451.92 722.047L1455.41 761.738L1536.76 750.624ZM1426.18 867.155L1455.41 863.345L1447.15 772.533L1416.96 776.661L1426.18 867.155ZM1416.01 767.135L1446.2 763.008L1442.38 722.047L1411.56 723L1416.01 767.135ZM1373.11 874.458L1407.11 870.013L1397.89 778.884L1366.75 780.789L1373.11 874.458ZM1396.94 769.041L1392.17 723.635L1266.97 727.128L1263.48 776.661L1396.94 769.041ZM1363.57 875.729L1356.9 781.107L1262.52 786.505L1254.9 890.335L1363.57 875.729ZM1263.79 695.375L1347.05 693.153L1343.87 635.681L1253.31 658.86L1263.79 695.375ZM1298.43 637.268L1288.26 585.83L1232.97 590.593L1250.13 649.652L1298.43 637.268ZM1247.9 727.763L1116.98 731.573L1111.26 765.23L1244.09 776.661L1247.9 727.763ZM1243.46 785.869L1109.67 774.439L1101.41 823.337L1239.64 838.261L1243.46 785.869ZM1233.29 925.262L1238.37 857.63L1098.55 842.389L1089.02 900.495L1233.29 925.262ZM1087.75 789.68L1097.28 731.891L927.905 736.653C931.718 751.259 937.756 773.804 946.336 800.476L1087.75 789.68ZM894.22 912.244L957.458 888.112C953.645 878.586 949.831 869.06 946.336 859.852L879.921 875.411L894.22 912.244ZM939.662 841.754C923.456 796.348 913.287 757.61 908.52 737.288L868.798 738.558L830.03 804.921L870.387 857.947L939.662 841.754ZM805.243 873.188L859.901 860.487L822.403 811.271L787.766 825.56L805.243 873.188ZM784.27 816.352L816.365 803.016L779.821 755.07C775.055 758.245 770.288 760.468 764.886 762.373L784.27 816.352ZM764.568 817.939L745.819 766.183C744.23 766.183 742.959 766.183 741.37 766.183C733.744 766.183 726.117 764.913 719.126 762.69L696.564 808.731L764.568 817.939ZM740.099 896.685L731.837 823.337L691.797 817.939L663.515 875.729L740.099 896.685ZM662.244 806.191L691.797 745.862C681.946 736.018 674.955 723 672.413 708.711L617.756 717.919L662.244 806.191ZM606.316 919.864L623.158 885.889L567.229 870.013L558.014 904.941L606.316 919.864ZM473.168 878.586L548.798 902.083L557.696 867.155L467.766 841.436L473.168 878.586ZM464.906 820.797L631.738 868.426L656.842 816.987L628.56 761.42L459.821 785.87L464.906 820.797ZM461.728 933.2L448.381 839.213L401.351 845.564L412.473 918.912L461.728 933.2ZM357.815 903.036L401.986 915.736L391.5 846.834L348.6 852.549L357.815 903.036Z" fill="#244ADC"/>
</g>
</g>
<path fill-rule="evenodd" clip-rule="evenodd" d="M1189.44 197.356C1205.73 197.356 1218.9 210.529 1218.9 226.815C1218.9 248.909 1189.44 281.523 1189.44 281.523C1189.44 281.523 1159.99 248.909 1159.99 226.815C1159.99 210.529 1173.16 197.356 1189.44 197.356ZM1189.44 237.336C1195.25 237.336 1199.96 232.622 1199.96 226.815C1199.96 221.007 1195.25 216.294 1189.44 216.294C1183.64 216.294 1178.92 221.007 1178.92 226.815C1178.92 232.622 1183.64 237.336 1189.44 237.336Z" fill="#244ADC"/>
<mask id="mask2_0_803" style="mask-type:alpha" maskUnits="userSpaceOnUse" x="1159" y="197" width="60" height="85">
<path fill-rule="evenodd" clip-rule="evenodd" d="M1189.44 197.356C1205.73 197.356 1218.9 210.529 1218.9 226.815C1218.9 248.909 1189.44 281.523 1189.44 281.523C1189.44 281.523 1159.99 248.909 1159.99 226.815C1159.99 210.529 1173.16 197.356 1189.44 197.356ZM1189.44 237.336C1195.25 237.336 1199.96 232.622 1199.96 226.815C1199.96 221.007 1195.25 216.294 1189.44 216.294C1183.64 216.294 1178.92 221.007 1178.92 226.815C1178.92 232.622 1183.64 237.336 1189.44 237.336Z" fill="white"/>
</mask>
<g mask="url(#mask2_0_803)">
</g>
</g>
</svg>
