<svg width="109" height="115" viewBox="0 0 109 115" fill="none" xmlns="http://www.w3.org/2000/svg">
<path opacity="0.2" fill-rule="evenodd" clip-rule="evenodd" d="M36.5 0C16.3416 0 0 16.3416 0 36.5C0 56.6584 16.3416 73 36.5 73C56.6584 73 73 56.6584 73 36.5C73 16.3416 56.6584 0 36.5 0ZM87 73C75.402 73 66 82.402 66 94C66 105.598 75.402 115 87 115H88C99.598 115 109 105.598 109 94C109 82.402 99.598 73 88 73H87Z" fill="#06C66C"/>
<path fill-rule="evenodd" clip-rule="evenodd" d="M28.6 27H81.4C84.4928 27 87 29.5072 87 32.6V68.6C87 71.6928 84.4928 74.2 81.4 74.2H63.8V83.4H71.8V88.2H38.2V83.4H46.2V74.2H28.6C25.5072 74.2 23 71.6928 23 68.6V32.6C23 29.5072 25.5072 27 28.6 27ZM81.4 31.8H28.6C28.1582 31.8 27.8 32.1582 27.8 32.6V68.6C27.8 69.0418 28.1582 69.4 28.6 69.4H81.4C81.8418 69.4 82.2 69.0418 82.2 68.6V32.6C82.2 32.1582 81.8418 31.8 81.4 31.8ZM59 83V75H51V83H59ZM65.4 48.2V43.4H39V48.2H65.4ZM59 53V57.8H39V53H59Z" fill="#06C66C"/>
</svg>
