<svg width="109" height="115" viewBox="0 0 109 115" fill="none" xmlns="http://www.w3.org/2000/svg">
<rect opacity="0.2" width="73" height="73" rx="36.5" fill="#6236FF"/>
<rect opacity="0.2" x="66" y="73" width="43" height="42" rx="21" fill="#6236FF"/>
<path fill-rule="evenodd" clip-rule="evenodd" d="M86.9032 33C88.0078 33 88.9032 33.8954 88.9032 35V43.3871C88.9032 44.4917 88.0078 45.3871 86.9032 45.3871H78.5161C77.4115 45.3871 76.5161 44.4917 76.5161 43.3871V42.3571L40.3871 42.7453V43.3871C40.3871 44.4917 39.4916 45.3871 38.3871 45.3871H37.2903V67.4315L50.5064 54.2154L62.7919 53.6813C64.9989 53.5853 66.8659 55.2967 66.9618 57.5038L66.9656 57.6775L66.9618 57.8513L66.4277 70.1367L36.9367 99.6277L32.6941 95.3851L35.2082 92.871H30C28.8954 92.871 28 91.9755 28 90.871V85.207L25.2581 87.9491L21.0154 83.7064L31.0967 73.6251V45.3871H30C28.8954 45.3871 28 44.4917 28 43.3871V35C28 33.8954 28.8954 33 30 33H38.3871C39.4916 33 40.3871 33.8954 40.3871 35V36.5421L76.5161 36.1618V35C76.5161 33.8954 77.4115 33 78.5161 33H86.9032ZM40.3871 87.692V82.4839C40.3871 81.3793 39.4916 80.4839 38.3871 80.4839H37.2903V75.9162L53.0976 60.108L60.8723 59.7708L60.5343 67.5447L40.3871 87.692Z" fill="#6236FF"/>
</svg>
