<svg width="118" height="95" viewBox="0 0 118 95" fill="none" xmlns="http://www.w3.org/2000/svg">
<path opacity="0.2" fill-rule="evenodd" clip-rule="evenodd" d="M8 -39C8 -36.7909 6.20914 -35 4 -35C1.79086 -35 0 -36.7909 0 -39C0 -41.2091 1.79086 -43 4 -43C6.20914 -43 8 -41.2091 8 -39ZM8 13C8 15.2091 6.20914 17 4 17C1.79086 17 0 15.2091 0 13C0 10.7909 1.79086 9 4 9C6.20914 9 8 10.7909 8 13ZM4 -9C6.20914 -9 8 -10.7909 8 -13C8 -15.2091 6.20914 -17 4 -17C1.79086 -17 0 -15.2091 0 -13C0 -10.7909 1.79086 -9 4 -9ZM8 39C8 41.2091 6.20914 43 4 43C1.79086 43 0 41.2091 0 39C0 36.7909 1.79086 35 4 35C6.20914 35 8 36.7909 8 39ZM30 -35C32.2091 -35 34 -36.7909 34 -39C34 -41.2091 32.2091 -43 30 -43C27.7909 -43 26 -41.2091 26 -39C26 -36.7909 27.7909 -35 30 -35ZM34 13C34 15.2091 32.2091 17 30 17C27.7909 17 26 15.2091 26 13C26 10.7909 27.7909 9 30 9C32.2091 9 34 10.7909 34 13ZM30 -9C32.2091 -9 34 -10.7909 34 -13C34 -15.2091 32.2091 -17 30 -17C27.7909 -17 26 -15.2091 26 -13C26 -10.7909 27.7909 -9 30 -9ZM34 39C34 41.2091 32.2091 43 30 43C27.7909 43 26 41.2091 26 39C26 36.7909 27.7909 35 30 35C32.2091 35 34 36.7909 34 39ZM56 -35C58.2091 -35 60 -36.7909 60 -39C60 -41.2091 58.2091 -43 56 -43C53.7909 -43 52 -41.2091 52 -39C52 -36.7909 53.7909 -35 56 -35ZM60 13C60 15.2091 58.2091 17 56 17C53.7909 17 52 15.2091 52 13C52 10.7909 53.7909 9 56 9C58.2091 9 60 10.7909 60 13ZM56 -9C58.2091 -9 60 -10.7909 60 -13C60 -15.2091 58.2091 -17 56 -17C53.7909 -17 52 -15.2091 52 -13C52 -10.7909 53.7909 -9 56 -9ZM60 39C60 41.2091 58.2091 43 56 43C53.7909 43 52 41.2091 52 39C52 36.7909 53.7909 35 56 35C58.2091 35 60 36.7909 60 39ZM82 -35C84.2091 -35 86 -36.7909 86 -39C86 -41.2091 84.2091 -43 82 -43C79.7909 -43 78 -41.2091 78 -39C78 -36.7909 79.7909 -35 82 -35ZM86 13C86 15.2091 84.2091 17 82 17C79.7909 17 78 15.2091 78 13C78 10.7909 79.7909 9 82 9C84.2091 9 86 10.7909 86 13ZM82 -9C84.2091 -9 86 -10.7909 86 -13C86 -15.2091 84.2091 -17 82 -17C79.7909 -17 78 -15.2091 78 -13C78 -10.7909 79.7909 -9 82 -9ZM86 39C86 41.2091 84.2091 43 82 43C79.7909 43 78 41.2091 78 39C78 36.7909 79.7909 35 82 35C84.2091 35 86 36.7909 86 39ZM108 -35C110.209 -35 112 -36.7909 112 -39C112 -41.2091 110.209 -43 108 -43C105.791 -43 104 -41.2091 104 -39C104 -36.7909 105.791 -35 108 -35ZM112 13C112 15.2091 110.209 17 108 17C105.791 17 104 15.2091 104 13C104 10.7909 105.791 9 108 9C110.209 9 112 10.7909 112 13ZM108 -9C110.209 -9 112 -10.7909 112 -13C112 -15.2091 110.209 -17 108 -17C105.791 -17 104 -15.2091 104 -13C104 -10.7909 105.791 -9 108 -9ZM112 39C112 41.2091 110.209 43 108 43C105.791 43 104 41.2091 104 39C104 36.7909 105.791 35 108 35C110.209 35 112 36.7909 112 39ZM134 -35C136.209 -35 138 -36.7909 138 -39C138 -41.2091 136.209 -43 134 -43C131.791 -43 130 -41.2091 130 -39C130 -36.7909 131.791 -35 134 -35ZM138 13C138 15.2091 136.209 17 134 17C131.791 17 130 15.2091 130 13C130 10.7909 131.791 9 134 9C136.209 9 138 10.7909 138 13ZM134 -9C136.209 -9 138 -10.7909 138 -13C138 -15.2091 136.209 -17 134 -17C131.791 -17 130 -15.2091 130 -13C130 -10.7909 131.791 -9 134 -9ZM138 39C138 41.2091 136.209 43 134 43C131.791 43 130 41.2091 130 39C130 36.7909 131.791 35 134 35C136.209 35 138 36.7909 138 39ZM4 69C6.20914 69 8 67.2091 8 65C8 62.7909 6.20914 61 4 61C1.79086 61 0 62.7909 0 65C0 67.2091 1.79086 69 4 69ZM8 91C8 93.2091 6.20914 95 4 95C1.79086 95 0 93.2091 0 91C0 88.7909 1.79086 87 4 87C6.20914 87 8 88.7909 8 91ZM30 69C32.2091 69 34 67.2091 34 65C34 62.7909 32.2091 61 30 61C27.7909 61 26 62.7909 26 65C26 67.2091 27.7909 69 30 69ZM34 91C34 93.2091 32.2091 95 30 95C27.7909 95 26 93.2091 26 91C26 88.7909 27.7909 87 30 87C32.2091 87 34 88.7909 34 91ZM56 69C58.2091 69 60 67.2091 60 65C60 62.7909 58.2091 61 56 61C53.7909 61 52 62.7909 52 65C52 67.2091 53.7909 69 56 69ZM60 91C60 93.2091 58.2091 95 56 95C53.7909 95 52 93.2091 52 91C52 88.7909 53.7909 87 56 87C58.2091 87 60 88.7909 60 91ZM82 69C84.2091 69 86 67.2091 86 65C86 62.7909 84.2091 61 82 61C79.7909 61 78 62.7909 78 65C78 67.2091 79.7909 69 82 69ZM86 91C86 93.2091 84.2091 95 82 95C79.7909 95 78 93.2091 78 91C78 88.7909 79.7909 87 82 87C84.2091 87 86 88.7909 86 91ZM108 69C110.209 69 112 67.2091 112 65C112 62.7909 110.209 61 108 61C105.791 61 104 62.7909 104 65C104 67.2091 105.791 69 108 69ZM112 91C112 93.2091 110.209 95 108 95C105.791 95 104 93.2091 104 91C104 88.7909 105.791 87 108 87C110.209 87 112 88.7909 112 91ZM134 69C136.209 69 138 67.2091 138 65C138 62.7909 136.209 61 134 61C131.791 61 130 62.7909 130 65C130 67.2091 131.791 69 134 69ZM138 91C138 93.2091 136.209 95 134 95C131.791 95 130 93.2091 130 91C130 88.7909 131.791 87 134 87C136.209 87 138 88.7909 138 91Z" fill="#6236FF"/>
</svg>
