<svg width="109" height="115" viewBox="0 0 109 115" fill="none" xmlns="http://www.w3.org/2000/svg">
<path opacity="0.2" fill-rule="evenodd" clip-rule="evenodd" d="M36.5 0C16.3416 0 0 16.3416 0 36.5C0 56.6584 16.3416 73 36.5 73C56.6584 73 73 56.6584 73 36.5C73 16.3416 56.6584 0 36.5 0ZM87 73C75.402 73 66 82.402 66 94C66 105.598 75.402 115 87 115H88C99.598 115 109 105.598 109 94C109 82.402 99.598 73 88 73H87Z" fill="#F7B500"/>
<path d="M23.9471 52.6483C23.4831 51.8447 23.7584 50.8172 24.562 50.3533L63.5967 27.8166C64.4003 27.3526 65.4278 27.628 65.8917 28.4315L85.3136 62.0712C86.1859 63.582 85.6682 65.5138 84.1574 66.3861C82.6467 67.2583 80.7148 66.7407 79.8426 65.2299L62.6288 35.4148L31.6262 53.3141L48.84 83.1293C49.7122 84.6401 49.1946 86.5719 47.6838 87.4441C46.173 88.3164 44.2412 87.7988 43.3689 86.288L23.9471 52.6483Z" fill="#F7B500"/>
<path fill-rule="evenodd" clip-rule="evenodd" d="M54.0281 51.3921C52.6588 51.0727 51.3257 51.8906 51 53.2852L47.8147 66.9245L47.7798 67.0991C47.5469 68.4977 48.4149 69.9227 49.7855 70.338L49.9567 70.3839C51.326 70.7034 52.6591 69.8854 52.9848 68.4908L54.7611 60.8857L65.2169 78.9957L65.3001 79.1313C66.0777 80.3235 67.5987 80.7468 68.77 80.0706C69.9847 79.3692 70.3634 77.7509 69.6157 76.456L59.3194 58.6222L66.3754 60.7598L66.5467 60.8056C67.916 61.1251 69.2491 60.3072 69.5748 58.9126C69.914 57.4599 69.0317 55.9317 67.604 55.4991L54.1993 51.438L54.0281 51.3921Z" fill="#F7B500"/>
</svg>
