<svg width="120" height="126" viewBox="0 0 120 126" fill="none" xmlns="http://www.w3.org/2000/svg">
<path opacity="0.2" fill-rule="evenodd" clip-rule="evenodd" d="M52 73.2783V126H0V77.3896C0 53.5278 4.80125 35.1478 14.4038 22.2495C24.0063 9.35125 36.5383 1.93474 52 0V22.7332C40.77 24.8292 32.8764 32.8906 28.3192 46.9175C26.0407 53.8503 24.9014 60.7025 24.9014 67.4741C24.9014 68.2802 24.9421 68.9654 25.0235 69.5297C25.1049 70.094 25.2269 71.3436 25.3897 73.2783H52ZM120 73.2783V126H68V77.3896C68 58.2035 72.0498 41.0729 80.1495 25.9981C88.2492 10.9232 101.533 2.2572 120 0V22.7332C111.09 24.1843 104.327 29.1823 99.7103 37.7274C95.0935 46.2726 92.785 56.1075 92.785 67.2322C92.785 68.1996 92.8255 69.167 92.9065 70.1344C92.9875 71.1017 93.19 72.1497 93.514 73.2783H120Z" fill="white"/>
</svg>
