<svg width="138" height="138" viewBox="0 0 138 138" fill="none" xmlns="http://www.w3.org/2000/svg">
<path fill-rule="evenodd" clip-rule="evenodd" d="M8 4C8 6.20914 6.20914 8 4 8C1.79086 8 0 6.20914 0 4C0 1.79086 1.79086 0 4 0C6.20914 0 8 1.79086 8 4ZM8 56C8 58.2091 6.20914 60 4 60C1.79086 60 0 58.2091 0 56C0 53.7909 1.79086 52 4 52C6.20914 52 8 53.7909 8 56ZM4 34C6.20914 34 8 32.2091 8 30C8 27.7909 6.20914 26 4 26C1.79086 26 0 27.7909 0 30C0 32.2091 1.79086 34 4 34ZM8 82C8 84.2091 6.20914 86 4 86C1.79086 86 0 84.2091 0 82C0 79.7909 1.79086 78 4 78C6.20914 78 8 79.7909 8 82ZM30 8C32.2091 8 34 6.20914 34 4C34 1.79086 32.2091 0 30 0C27.7909 0 26 1.79086 26 4C26 6.20914 27.7909 8 30 8ZM34 56C34 58.2091 32.2091 60 30 60C27.7909 60 26 58.2091 26 56C26 53.7909 27.7909 52 30 52C32.2091 52 34 53.7909 34 56ZM30 34C32.2091 34 34 32.2091 34 30C34 27.7909 32.2091 26 30 26C27.7909 26 26 27.7909 26 30C26 32.2091 27.7909 34 30 34ZM34 82C34 84.2091 32.2091 86 30 86C27.7909 86 26 84.2091 26 82C26 79.7909 27.7909 78 30 78C32.2091 78 34 79.7909 34 82ZM56 8C58.2091 8 60 6.20914 60 4C60 1.79086 58.2091 0 56 0C53.7909 0 52 1.79086 52 4C52 6.20914 53.7909 8 56 8ZM60 56C60 58.2091 58.2091 60 56 60C53.7909 60 52 58.2091 52 56C52 53.7909 53.7909 52 56 52C58.2091 52 60 53.7909 60 56ZM56 34C58.2091 34 60 32.2091 60 30C60 27.7909 58.2091 26 56 26C53.7909 26 52 27.7909 52 30C52 32.2091 53.7909 34 56 34ZM60 82C60 84.2091 58.2091 86 56 86C53.7909 86 52 84.2091 52 82C52 79.7909 53.7909 78 56 78C58.2091 78 60 79.7909 60 82ZM82 8C84.2091 8 86 6.20914 86 4C86 1.79086 84.2091 0 82 0C79.7909 0 78 1.79086 78 4C78 6.20914 79.7909 8 82 8ZM86 56C86 58.2091 84.2091 60 82 60C79.7909 60 78 58.2091 78 56C78 53.7909 79.7909 52 82 52C84.2091 52 86 53.7909 86 56ZM82 34C84.2091 34 86 32.2091 86 30C86 27.7909 84.2091 26 82 26C79.7909 26 78 27.7909 78 30C78 32.2091 79.7909 34 82 34ZM86 82C86 84.2091 84.2091 86 82 86C79.7909 86 78 84.2091 78 82C78 79.7909 79.7909 78 82 78C84.2091 78 86 79.7909 86 82ZM108 8C110.209 8 112 6.20914 112 4C112 1.79086 110.209 0 108 0C105.791 0 104 1.79086 104 4C104 6.20914 105.791 8 108 8ZM112 56C112 58.2091 110.209 60 108 60C105.791 60 104 58.2091 104 56C104 53.7909 105.791 52 108 52C110.209 52 112 53.7909 112 56ZM108 34C110.209 34 112 32.2091 112 30C112 27.7909 110.209 26 108 26C105.791 26 104 27.7909 104 30C104 32.2091 105.791 34 108 34ZM112 82C112 84.2091 110.209 86 108 86C105.791 86 104 84.2091 104 82C104 79.7909 105.791 78 108 78C110.209 78 112 79.7909 112 82ZM134 8C136.209 8 138 6.20914 138 4C138 1.79086 136.209 0 134 0C131.791 0 130 1.79086 130 4C130 6.20914 131.791 8 134 8ZM138 56C138 58.2091 136.209 60 134 60C131.791 60 130 58.2091 130 56C130 53.7909 131.791 52 134 52C136.209 52 138 53.7909 138 56ZM134 34C136.209 34 138 32.2091 138 30C138 27.7909 136.209 26 134 26C131.791 26 130 27.7909 130 30C130 32.2091 131.791 34 134 34ZM138 82C138 84.2091 136.209 86 134 86C131.791 86 130 84.2091 130 82C130 79.7909 131.791 78 134 78C136.209 78 138 79.7909 138 82ZM4 112C6.20914 112 8 110.209 8 108C8 105.791 6.20914 104 4 104C1.79086 104 0 105.791 0 108C0 110.209 1.79086 112 4 112ZM8 134C8 136.209 6.20914 138 4 138C1.79086 138 0 136.209 0 134C0 131.791 1.79086 130 4 130C6.20914 130 8 131.791 8 134ZM30 112C32.2091 112 34 110.209 34 108C34 105.791 32.2091 104 30 104C27.7909 104 26 105.791 26 108C26 110.209 27.7909 112 30 112ZM34 134C34 136.209 32.2091 138 30 138C27.7909 138 26 136.209 26 134C26 131.791 27.7909 130 30 130C32.2091 130 34 131.791 34 134ZM56 112C58.2091 112 60 110.209 60 108C60 105.791 58.2091 104 56 104C53.7909 104 52 105.791 52 108C52 110.209 53.7909 112 56 112ZM60 134C60 136.209 58.2091 138 56 138C53.7909 138 52 136.209 52 134C52 131.791 53.7909 130 56 130C58.2091 130 60 131.791 60 134ZM82 112C84.2091 112 86 110.209 86 108C86 105.791 84.2091 104 82 104C79.7909 104 78 105.791 78 108C78 110.209 79.7909 112 82 112ZM86 134C86 136.209 84.2091 138 82 138C79.7909 138 78 136.209 78 134C78 131.791 79.7909 130 82 130C84.2091 130 86 131.791 86 134ZM108 112C110.209 112 112 110.209 112 108C112 105.791 110.209 104 108 104C105.791 104 104 105.791 104 108C104 110.209 105.791 112 108 112ZM112 134C112 136.209 110.209 138 108 138C105.791 138 104 136.209 104 134C104 131.791 105.791 130 108 130C110.209 130 112 131.791 112 134ZM134 112C136.209 112 138 110.209 138 108C138 105.791 136.209 104 134 104C131.791 104 130 105.791 130 108C130 110.209 131.791 112 134 112ZM138 134C138 136.209 136.209 138 134 138C131.791 138 130 136.209 130 134C130 131.791 131.791 130 134 130C136.209 130 138 131.791 138 134Z" fill="#0091FF"/>
</svg>
