<svg width="34" height="34" viewBox="0 0 34 34" fill="none" xmlns="http://www.w3.org/2000/svg">
<path fill-rule="evenodd" clip-rule="evenodd" d="M33.1964 16.8816C33.1964 26.0208 25.8349 33.4297 16.7542 33.4297C7.67342 33.4297 0.312012 26.0208 0.312012 16.8816C0.312012 7.74232 7.67342 0.333496 16.7542 0.333496C25.8349 0.333496 33.1964 7.74232 33.1964 16.8816ZM24.5682 12.8482C25.363 12.7533 26.121 12.5406 26.8256 12.2261C26.2989 13.0193 25.6327 13.7158 24.8642 14.2733C24.8718 14.4426 24.8756 14.6134 24.8756 14.7848C24.8756 20.0123 20.9223 26.0394 13.6934 26.0394C11.474 26.0394 9.4077 25.3848 7.66934 24.2621C7.97621 24.299 8.28983 24.3176 8.60637 24.3176C10.4482 24.3176 12.1426 23.6854 13.4879 22.6244C11.7677 22.5922 10.3166 21.4485 9.81657 19.8774C10.0563 19.9235 10.3022 19.948 10.5561 19.948C10.9139 19.948 11.2618 19.8999 11.5913 19.809C9.79371 19.4459 8.43843 17.8474 8.43843 15.9308C8.43843 15.9143 8.43843 15.8975 8.43872 15.8807C8.96835 16.1777 9.57477 16.3556 10.2187 16.376C9.16472 15.6668 8.47038 14.4556 8.47038 13.0836C8.47038 12.3589 8.66441 11.6789 9.00264 11.0949C10.9412 13.4887 13.8373 15.0633 17.1036 15.2282C17.0361 14.9385 17.0013 14.6367 17.0013 14.3267C17.0013 12.1426 18.7613 10.3713 20.9314 10.3713C22.0625 10.3713 23.0839 10.8515 23.8008 11.6199C24.6957 11.4426 25.5371 11.1137 26.2966 10.6603C26.0026 11.5845 25.3797 12.3589 24.5682 12.8482Z" fill="white"/>
<mask id="mask0_54_632" style="mask-type:alpha" maskUnits="userSpaceOnUse" x="0" y="0" width="34" height="34">
<path fill-rule="evenodd" clip-rule="evenodd" d="M33.1964 16.8816C33.1964 26.0208 25.8349 33.4297 16.7542 33.4297C7.67342 33.4297 0.312012 26.0208 0.312012 16.8816C0.312012 7.74232 7.67342 0.333496 16.7542 0.333496C25.8349 0.333496 33.1964 7.74232 33.1964 16.8816ZM24.5682 12.8482C25.363 12.7533 26.121 12.5406 26.8256 12.2261C26.2989 13.0193 25.6327 13.7158 24.8642 14.2733C24.8718 14.4426 24.8756 14.6134 24.8756 14.7848C24.8756 20.0123 20.9223 26.0394 13.6934 26.0394C11.474 26.0394 9.4077 25.3848 7.66934 24.2621C7.97621 24.299 8.28983 24.3176 8.60637 24.3176C10.4482 24.3176 12.1426 23.6854 13.4879 22.6244C11.7677 22.5922 10.3166 21.4485 9.81657 19.8774C10.0563 19.9235 10.3022 19.948 10.5561 19.948C10.9139 19.948 11.2618 19.8999 11.5913 19.809C9.79371 19.4459 8.43843 17.8474 8.43843 15.9308C8.43843 15.9143 8.43843 15.8975 8.43872 15.8807C8.96835 16.1777 9.57477 16.3556 10.2187 16.376C9.16472 15.6668 8.47038 14.4556 8.47038 13.0836C8.47038 12.3589 8.66441 11.6789 9.00264 11.0949C10.9412 13.4887 13.8373 15.0633 17.1036 15.2282C17.0361 14.9385 17.0013 14.6367 17.0013 14.3267C17.0013 12.1426 18.7613 10.3713 20.9314 10.3713C22.0625 10.3713 23.0839 10.8515 23.8008 11.6199C24.6957 11.4426 25.5371 11.1137 26.2966 10.6603C26.0026 11.5845 25.3797 12.3589 24.5682 12.8482Z" fill="white"/>
</mask>
<g mask="url(#mask0_54_632)">
</g>
</svg>
